<?xml version="1.0" encoding="utf-8"?>
<!-- Generator: Adobe Illustrator 26.5.0, SVG Export Plug-In . SVG Version: 6.00 Build 0)  -->
<svg version="1.1" id="Layer_1" xmlns="http://www.w3.org/2000/svg" xmlns:xlink="http://www.w3.org/1999/xlink" x="0px" y="0px"
	 viewBox="0 0 1200 300" style="enable-background:new 0 0 1200 300;" xml:space="preserve">
<style type="text/css">
	.st0{fill:url(#SVGID_1_);}
	.st1{fill:url(#SVGID_00000160896701976598913110000011260535392539548854_);}
	.st2{fill:url(#SVGID_00000166649479224528441980000003801211682963590557_);}
	.st3{fill:#FFFFFF;}
</style>
<g>
	<g>
		
			<linearGradient id="SVGID_1_" gradientUnits="userSpaceOnUse" x1="120.2274" y1="96.3" x2="120.2274" y2="207.725" gradientTransform="matrix(1 0 0 -1 0 302)">
			<stop  offset="3.211025e-09" style="stop-color:#82B3FF"/>
			<stop  offset="1" style="stop-color:#662D91"/>
		</linearGradient>
		<path class="st0" d="M113.6,98.1c3-5.1,10.4-5.1,13.3,0l27.7,48l27.7,48c3,5.1-0.7,11.6-6.7,11.6h-55.4H64.8
			c-5.9,0-9.6-6.4-6.7-11.6l27.7-48L113.6,98.1z"/>
		<g>
			
				<linearGradient id="SVGID_00000049203968971256047230000010391422960885023636_" gradientUnits="userSpaceOnUse" x1="169.4208" y1="110.6532" x2="169.4208" y2="169.1908" gradientTransform="matrix(1 0 0 -1 0 302)">
				<stop  offset="0" style="stop-color:#662D91"/>
				<stop  offset="1" style="stop-color:#82B3FF"/>
			</linearGradient>
			<path style="fill:url(#SVGID_00000049203968971256047230000010391422960885023636_);" d="M165.2,135.2c1.9-3.2,6.5-3.2,8.4,0
				l14.1,24.4l14.1,24.4c1.9,3.2-0.5,7.2-4.2,7.2h-28.2h-28.2c-3.7,0-6-4-4.2-7.2l14.1-24.4L165.2,135.2z"/>
		</g>
		<g>
			
				<linearGradient id="SVGID_00000114073944337176798470000000131576040459781525_" gradientUnits="userSpaceOnUse" x1="68.6675" y1="170.275" x2="106.223" y2="170.275" gradientTransform="matrix(1 0 0 -1 0 302)">
				<stop  offset="0" style="stop-color:#662D91"/>
				<stop  offset="1" style="stop-color:#82B3FF"/>
			</linearGradient>
			<path style="fill:url(#SVGID_00000114073944337176798470000000131576040459781525_);" d="M84,116.9c1.5-2.6,5.3-2.6,6.9,0
				l7.4,12.8l7.4,12.8c1.5,2.6-0.4,6-3.4,6H87.4H72.6c-3.1,0-5-3.3-3.4-6l7.4-12.8L84,116.9z"/>
		</g>
	</g>
	<g>
		<path class="st3" d="M246.5,167.5V126h-16.1v-7.3h41.2v7.3h-16.1v41.5H246.5z"/>
		<path class="st3" d="M289.3,168.2c-3.6,0-6.7-0.7-9.4-2.2c-2.6-1.5-4.7-3.6-6.1-6.3c-1.5-2.7-2.2-6-2.2-9.7s0.7-7,2.2-9.7
			s3.5-4.8,6.1-6.3s5.8-2.2,9.4-2.2s6.7,0.7,9.4,2.2c2.7,1.5,4.7,3.6,6.2,6.3s2.2,5.9,2.2,9.7s-0.7,7-2.2,9.7s-3.5,4.8-6.2,6.3
			C296,167.5,292.9,168.2,289.3,168.2z M289.3,161.6c2.7,0,4.9-1,6.5-2.9s2.4-4.8,2.4-8.7s-0.8-6.8-2.4-8.7s-3.8-2.8-6.5-2.8
			s-4.9,0.9-6.5,2.8c-1.6,1.9-2.4,4.8-2.4,8.7s0.8,6.8,2.4,8.7S286.6,161.6,289.3,161.6z"/>
		<path class="st3" d="M316.2,182.5v-41.2c0-1.4,0-2.9-0.1-4.4s-0.2-2.9-0.4-4.4h8.4l0.8,7.3h-0.8c0.7-2.4,2.2-4.4,4.4-5.9
			c2.2-1.5,4.8-2.2,7.8-2.2c3.1,0,5.8,0.7,8.1,2.2c2.3,1.5,4.1,3.5,5.4,6.2s1.9,5.9,1.9,9.7s-0.6,7-1.9,9.8
			c-1.3,2.7-3.1,4.8-5.4,6.3s-5,2.2-8.1,2.2c-2.9,0-5.5-0.7-7.7-2.1c-2.2-1.4-3.7-3.3-4.4-5.8h0.8v22.2L316.2,182.5L316.2,182.5z
			 M333.8,161.6c2.8,0,5-1,6.7-2.9s2.5-4.8,2.5-8.7s-0.8-6.8-2.5-8.7s-3.9-2.8-6.7-2.8c-2.7,0-4.9,0.9-6.6,2.8
			c-1.7,1.9-2.5,4.8-2.5,8.7s0.8,6.8,2.5,8.7S331.1,161.6,333.8,161.6z"/>
		<path class="st3" d="M377,168.2c-3.6,0-6.8-0.7-9.5-2.2s-4.8-3.6-6.3-6.3s-2.2-6-2.2-9.8s0.8-7,2.3-9.7s3.6-4.7,6.3-6.2
			c2.7-1.4,5.8-2.1,9.4-2.1c2.3,0,4.6,0.4,6.8,1.1c2.2,0.7,4,1.7,5.4,3.1l-2.6,6c-1.2-1.2-2.6-2-4.2-2.6c-1.5-0.6-3.1-0.9-4.5-0.9
			c-3.1,0-5.5,1-7.2,2.9s-2.6,4.8-2.6,8.5s0.9,6.5,2.6,8.5s4.1,3,7.2,3c1.4,0,2.9-0.3,4.5-0.8c1.5-0.6,3-1.4,4.3-2.6l2.6,6
			c-1.4,1.3-3.2,2.4-5.4,3.1C381.5,167.9,379.3,168.2,377,168.2z"/>
		<path class="st3" d="M412.7,168.2c-3.6,0-6.7-0.7-9.4-2.2c-2.6-1.5-4.7-3.6-6.1-6.3c-1.5-2.7-2.2-6-2.2-9.7s0.7-7,2.2-9.7
			s3.5-4.8,6.1-6.3s5.8-2.2,9.4-2.2s6.7,0.7,9.4,2.2c2.7,1.5,4.7,3.6,6.2,6.3s2.2,5.9,2.2,9.7s-0.7,7-2.2,9.7s-3.5,4.8-6.2,6.3
			S416.3,168.2,412.7,168.2z M412.7,161.6c2.7,0,4.9-1,6.5-2.9s2.4-4.8,2.4-8.7s-0.8-6.8-2.4-8.7s-3.8-2.8-6.5-2.8s-4.9,0.9-6.5,2.8
			c-1.6,1.9-2.4,4.8-2.4,8.7s0.8,6.8,2.4,8.7C407.8,160.6,410,161.6,412.7,161.6z"/>
		<path class="st3" d="M439.7,167.5v-26.3c0-1.4,0-2.9-0.1-4.4s-0.2-2.9-0.4-4.4h8.4l0.7,6.9h-0.8c1.1-2.4,2.7-4.3,4.9-5.6
			c2.2-1.3,4.7-2,7.6-2c4.1,0,7.2,1.2,9.3,3.5c2.1,2.3,3.1,5.9,3.1,10.8v21.4h-8.7v-21c0-2.8-0.5-4.8-1.6-6.1
			c-1.1-1.2-2.7-1.8-4.9-1.8c-2.7,0-4.8,0.8-6.4,2.5s-2.4,3.9-2.4,6.7v19.8L439.7,167.5L439.7,167.5z"/>
		<path class="st3" d="M498.1,168.2c-4.2,0-7.3-1.1-9.4-3.3s-3.2-5.4-3.2-9.8V139h-6.7v-6.5h6.7v-8.9l8.7-2.2v11.2h9.4v6.5h-9.4
			v15.6c0,2.4,0.5,4.1,1.4,5.1s2.2,1.5,3.8,1.5c0.9,0,1.6-0.1,2.3-0.2s1.2-0.3,1.8-0.6v6.9c-0.8,0.3-1.7,0.6-2.6,0.7
			C499.9,168.2,499,168.2,498.1,168.2z"/>
		<path class="st3" d="M527.7,168.2c-5.9,0-10.5-1.6-13.8-4.9c-3.3-3.2-5-7.7-5-13.3c0-3.6,0.7-6.8,2.1-9.6c1.4-2.7,3.4-4.9,6-6.4
			s5.6-2.3,9-2.3s6.2,0.7,8.5,2.1c2.3,1.4,4,3.4,5.2,6s1.8,5.6,1.8,9.1v2.3H516v-4.6h19.3l-1.2,1c0-3.2-0.7-5.7-2-7.4
			c-1.4-1.7-3.3-2.6-5.9-2.6c-2.9,0-5.1,1-6.6,3s-2.3,4.9-2.3,8.5v0.9c0,3.8,0.9,6.6,2.8,8.5c1.9,1.9,4.5,2.8,7.9,2.8
			c2,0,3.8-0.3,5.6-0.8c1.7-0.5,3.4-1.4,5-2.6l2.6,5.8c-1.7,1.3-3.7,2.4-6,3.1C532.8,167.9,530.3,168.2,527.7,168.2z"/>
		<path class="st3" d="M550.5,167.5v-26.3c0-1.4,0-2.9-0.1-4.4s-0.2-2.9-0.4-4.4h8.4l0.7,6.9h-0.8c1.1-2.4,2.7-4.3,4.9-5.6
			s4.7-2,7.6-2c4.1,0,7.2,1.2,9.3,3.5s3.1,5.9,3.1,10.8v21.4h-8.7v-21c0-2.8-0.5-4.8-1.6-6.1c-1.1-1.2-2.7-1.8-4.9-1.8
			c-2.7,0-4.8,0.8-6.4,2.5c-1.6,1.7-2.4,3.9-2.4,6.7v19.8L550.5,167.5L550.5,167.5z"/>
		<path class="st3" d="M609,168.2c-4.2,0-7.3-1.1-9.4-3.3c-2.1-2.2-3.2-5.4-3.2-9.8V139h-6.7v-6.5h6.7v-8.9l8.7-2.2v11.2h9.4v6.5
			h-9.4v15.6c0,2.4,0.5,4.1,1.4,5.1s2.2,1.5,3.8,1.5c0.9,0,1.6-0.1,2.3-0.2c0.6-0.1,1.2-0.3,1.8-0.6v6.9c-0.8,0.3-1.7,0.6-2.6,0.7
			C610.8,168.2,609.9,168.2,609,168.2z"/>
		<path class="st3" d="M621.6,151.9V145h21.1v6.9H621.6z"/>
		<path class="st3" d="M671.7,168.2c-5.9,0-10.5-1.6-13.8-4.9c-3.3-3.2-5-7.7-5-13.3c0-3.6,0.7-6.8,2.1-9.6c1.4-2.7,3.4-4.9,6-6.4
			s5.6-2.3,9-2.3s6.2,0.7,8.5,2.1c2.3,1.4,4,3.4,5.2,6s1.8,5.6,1.8,9.1v2.3H660v-4.6h19.3l-1.2,1c0-3.2-0.7-5.7-2-7.4
			c-1.4-1.7-3.3-2.6-5.9-2.6c-2.9,0-5.1,1-6.6,3s-2.3,4.9-2.3,8.5v0.9c0,3.8,0.9,6.6,2.8,8.5s4.5,2.8,7.9,2.8c2,0,3.8-0.3,5.6-0.8
			c1.7-0.5,3.4-1.4,5-2.6l2.6,5.8c-1.7,1.3-3.6,2.4-6,3.1C676.8,167.9,674.3,168.2,671.7,168.2z"/>
		<path class="st3" d="M694.5,167.5v-26.3c0-1.4,0-2.9-0.1-4.4s-0.2-2.9-0.4-4.4h8.4l0.7,6.9h-0.8c1.1-2.4,2.7-4.3,4.9-5.6
			s4.7-2,7.6-2c4.1,0,7.2,1.2,9.3,3.5s3.1,5.9,3.1,10.8v21.4h-8.7v-21c0-2.8-0.5-4.8-1.6-6.1c-1.1-1.2-2.7-1.8-4.9-1.8
			c-2.7,0-4.8,0.8-6.4,2.5c-1.6,1.7-2.4,3.9-2.4,6.7v19.8L694.5,167.5L694.5,167.5z"/>
		<path class="st3" d="M753,168.2c-4.2,0-7.3-1.1-9.4-3.3c-2.1-2.2-3.2-5.4-3.2-9.8V139h-6.7v-6.5h6.7v-8.9l8.7-2.2v11.2h9.4v6.5
			h-9.4v15.6c0,2.4,0.5,4.1,1.4,5.1s2.2,1.5,3.8,1.5c0.9,0,1.6-0.1,2.3-0.2c0.6-0.1,1.2-0.3,1.8-0.6v6.9c-0.8,0.3-1.7,0.6-2.6,0.7
			C754.8,168.2,753.9,168.2,753,168.2z"/>
		<path class="st3" d="M782.6,168.2c-5.9,0-10.5-1.6-13.8-4.9c-3.3-3.2-5-7.7-5-13.3c0-3.6,0.7-6.8,2.1-9.6c1.4-2.7,3.4-4.9,6-6.4
			s5.6-2.3,9-2.3s6.2,0.7,8.5,2.1c2.3,1.4,4,3.4,5.2,6s1.8,5.6,1.8,9.1v2.3h-25.5v-4.6h19.3l-1.2,1c0-3.2-0.7-5.7-2-7.4
			c-1.4-1.7-3.3-2.6-5.9-2.6c-2.9,0-5.1,1-6.6,3s-2.3,4.9-2.3,8.5v0.9c0,3.8,0.9,6.6,2.8,8.5s4.5,2.8,7.9,2.8c2,0,3.8-0.3,5.6-0.8
			c1.7-0.5,3.4-1.4,5-2.6l2.6,5.8c-1.7,1.3-3.6,2.4-6,3.1C787.6,167.9,785.2,168.2,782.6,168.2z"/>
		<path class="st3" d="M805.3,167.5v-26.1c0-1.5,0-3-0.1-4.5s-0.2-3-0.4-4.4h8.4l1,9.6h-1.4c0.5-2.3,1.2-4.2,2.3-5.8
			c1.1-1.5,2.4-2.7,4-3.4s3.3-1.1,5.1-1.1c0.8,0,1.5,0,2,0.1s1,0.2,1.5,0.4l-0.1,7.6c-0.9-0.4-1.6-0.6-2.3-0.7
			c-0.6-0.1-1.4-0.1-2.3-0.1c-2,0-3.7,0.4-5,1.2c-1.4,0.8-2.4,2-3,3.5c-0.7,1.5-1,3.2-1,5.1v18.6L805.3,167.5L805.3,167.5z"/>
		<path class="st3" d="M851.3,168.2c-4.2,0-7.3-1.1-9.4-3.3c-2.1-2.2-3.2-5.4-3.2-9.8V139H832v-6.5h6.7v-8.9l8.7-2.2v11.2h9.4v6.5
			h-9.4v15.6c0,2.4,0.5,4.1,1.4,5.1s2.2,1.5,3.8,1.5c0.9,0,1.6-0.1,2.3-0.2c0.6-0.1,1.2-0.3,1.8-0.6v6.9c-0.8,0.3-1.7,0.6-2.6,0.7
			C853.1,168.2,852.2,168.2,851.3,168.2z"/>
		<path class="st3" d="M877.8,168.2c-3,0-5.7-0.7-8-2.2s-4.1-3.5-5.4-6.3c-1.3-2.7-1.9-6-1.9-9.8s0.6-7,1.9-9.7
			c1.3-2.7,3.1-4.8,5.4-6.2c2.3-1.5,5-2.2,8-2.2s5.6,0.7,7.8,2.2s3.7,3.4,4.5,5.9h-0.8l0.8-7.3h8.3c-0.1,1.4-0.3,2.9-0.4,4.4
			c-0.1,1.5-0.2,2.9-0.2,4.4v26.3h-8.6l-0.1-7.2h0.8c-0.7,2.4-2.2,4.3-4.5,5.8C883.2,167.5,880.7,168.2,877.8,168.2z M880.2,161.6
			c2.7,0,4.9-1,6.6-2.9c1.7-1.9,2.5-4.8,2.5-8.7s-0.8-6.8-2.5-8.7s-3.9-2.8-6.6-2.8s-4.9,0.9-6.6,2.8c-1.7,1.9-2.5,4.8-2.5,8.7
			s0.8,6.8,2.5,8.7C875.3,160.6,877.5,161.6,880.2,161.6z"/>
		<path class="st3" d="M908.5,126v-8.5h9.6v8.5H908.5z M909,167.5v-35h8.7v35H909z"/>
		<path class="st3" d="M928.8,167.5v-26.3c0-1.4,0-2.9-0.1-4.4s-0.2-2.9-0.4-4.4h8.4l0.7,6.9h-0.8c1.1-2.4,2.7-4.3,4.9-5.6
			s4.7-2,7.6-2c4.1,0,7.2,1.2,9.3,3.5s3.1,5.9,3.1,10.8v21.4h-8.7v-21c0-2.8-0.5-4.8-1.6-6.1c-1.1-1.2-2.7-1.8-4.9-1.8
			c-2.7,0-4.8,0.8-6.4,2.5c-1.6,1.7-2.4,3.9-2.4,6.7v19.8L928.8,167.5L928.8,167.5z"/>
		<path class="st3" d="M972.3,167.5v-26.3c0-1.4,0-2.9-0.1-4.4s-0.2-2.9-0.4-4.4h8.4l0.7,6.9H980c1-2.4,2.5-4.3,4.5-5.6s4.4-2,7.2-2
			s5.1,0.7,6.9,2c1.8,1.3,3.1,3.4,3.8,6.1h-1.1c1-2.5,2.6-4.5,4.8-5.9c2.2-1.5,4.8-2.2,7.6-2.2c3.9,0,6.9,1.2,8.8,3.5
			c1.9,2.3,2.9,5.9,2.9,10.8v21.4h-8.7v-21.1c0-2.8-0.5-4.8-1.4-6s-2.4-1.8-4.4-1.8c-2.4,0-4.3,0.8-5.7,2.5s-2.1,4-2.1,6.8v19.5
			h-8.7v-21.1c0-2.8-0.5-4.8-1.4-6s-2.4-1.8-4.4-1.8c-2.4,0-4.3,0.8-5.6,2.5c-1.4,1.7-2,4-2,6.8v19.5h-8.7V167.5z"/>
		<path class="st3" d="M1053.3,168.2c-5.9,0-10.5-1.6-13.8-4.9c-3.3-3.2-5-7.7-5-13.3c0-3.6,0.7-6.8,2.1-9.6c1.4-2.7,3.4-4.9,6-6.4
			s5.6-2.3,9-2.3s6.2,0.7,8.5,2.1c2.3,1.4,4,3.4,5.2,6s1.8,5.6,1.8,9.1v2.3h-25.5v-4.6h19.3l-1.2,1c0-3.2-0.7-5.7-2-7.4
			c-1.4-1.7-3.3-2.6-5.9-2.6c-2.9,0-5.1,1-6.6,3s-2.3,4.9-2.3,8.5v0.9c0,3.8,0.9,6.6,2.8,8.5s4.5,2.8,7.9,2.8c2,0,3.8-0.3,5.6-0.8
			c1.7-0.5,3.4-1.4,5-2.6l2.6,5.8c-1.7,1.3-3.6,2.4-6,3.1C1058.3,167.9,1055.9,168.2,1053.3,168.2z"/>
		<path class="st3" d="M1076.1,167.5v-26.3c0-1.4,0-2.9-0.1-4.4s-0.2-2.9-0.4-4.4h8.4l0.7,6.9h-0.8c1.1-2.4,2.7-4.3,4.9-5.6
			c2.2-1.3,4.7-2,7.6-2c4.1,0,7.2,1.2,9.3,3.5c2.1,2.3,3.1,5.9,3.1,10.8v21.4h-8.7v-21c0-2.8-0.5-4.8-1.6-6.1
			c-1.1-1.2-2.7-1.8-4.9-1.8c-2.7,0-4.8,0.8-6.4,2.5s-2.4,3.9-2.4,6.7v19.8L1076.1,167.5L1076.1,167.5z"/>
		<path class="st3" d="M1134.6,168.2c-4.2,0-7.3-1.1-9.4-3.3s-3.2-5.4-3.2-9.8V139h-6.7v-6.5h6.7v-8.9l8.7-2.2v11.2h9.4v6.5h-9.4
			v15.6c0,2.4,0.5,4.1,1.4,5.1s2.2,1.5,3.8,1.5c0.9,0,1.6-0.1,2.3-0.2c0.6-0.1,1.2-0.3,1.8-0.6v6.9c-0.8,0.3-1.7,0.6-2.6,0.7
			C1136.4,168.2,1135.4,168.2,1134.6,168.2z"/>
	</g>
</g>
</svg>
