<svg version="1.1" id="Layer_1" xmlns="http://www.w3.org/2000/svg" x="0" y="0" viewBox="0 0 1970 228.8" xml:space="preserve"><style>.st0{fill:#09225e}</style><g id="XMLID_129_"><g id="XMLID_135_"><path id="XMLID_136_" class="st0" d="M71.5 169.8H43.2c-14.4 0-25.9-11.7-25.9-25.9v-31C17.3 98.5 29 87 43.2 87h28.3v82.8z"/></g><g id="XMLID_130_"><g id="XMLID_133_"><path id="XMLID_134_" class="st0" d="M19.3 153.7s-.9-2-2.6-5.7c-.7-1.8-1.8-3.8-2.7-6.6-.5-1.3-1.1-2.7-1.6-4.2-.5-1.6-1.3-3.1-1.8-4.7s-1.1-3.3-1.8-5.1c-.2-.9-.7-1.8-.9-2.7-.2-.9-.5-2-.7-2.7-.5-2-1.1-4-1.6-5.8-.2-1.1-.5-2-.7-3.1s-.7-2.2-1.1-3.1c-.2-1.1-.5-2.2-.7-3.1-.2-.5-.2-1.1-.2-1.6-.2-.5-.2-1.1-.2-1.6-.4-2.2-.7-4.6-1.1-6.7-.2-2.6-.4-4.9-.7-7.1l-.2-1.8c0-.7 0-1.1-.2-1.8l-.2-3.6-.3-3.6c0-1.1 0-2.2.2-3.5 0-1.1.2-2.2.2-3.5v-1.6c0-.7.2-1.1.2-1.8.2-2.2.4-4.6.7-6.7.2-2.2.7-4.6 1.1-6.6.2-2.2.7-4.2 1.3-6.2-.1-1.1.3-2.2.5-3.1.2-.5.2-1.1.4-1.6s.2-1.1.4-1.3c.5-2 1.1-3.8 1.6-5.7.2-.5.2-.9.4-1.3s.2-.9.5-1.3c.2-.9.7-1.6.9-2.6.7-1.6 1.1-3.1 1.6-4.7.7-1.3 1.1-2.7 1.6-4s1.1-2.6 1.6-3.6c.5-1.1 1.1-2 1.3-3.1 1.6-3.6 2.7-5.8 2.7-5.8l7.3 3.5s-.7 2-2.2 5.7c-.4.9-.7 2-1.1 2.9-.4 1.1-.7 2.2-1.3 3.6-.4 1.3-.9 2.6-1.3 4-.4 1.3-.9 2.9-1.3 4.6-.2.7-.5 1.6-.7 2.4-.2.2-.2.7-.4 1.1 0 .4-.2.9-.2 1.3-.4 1.6-.7 3.5-1.1 5.1.1.5.1.8.1 1.2-.2.5-.2.9-.2 1.3-.2 1.1-.4 2.2-.7 3.1-.2 2-.7 3.8-.9 5.8s-.4 4-.7 6c-.2 2-.2 4-.2 6.2v3.2c0 1.1.2 2.2.2 3.1 0 1.1 0 2.2.2 3.1l.2 3.3.2 3.1c0 .5.2 1.1.2 1.6l.2 1.6c.4 2 .7 4.2 1.1 6.2.5 2 .9 4 1.3 6 .2.5.2 1.1.4 1.6s.2 1.1.4 1.6c.2 1.1.5 2 .9 2.9.2 1.1.5 2 .7 2.7.2.9.5 2 .9 2.7.7 1.8 1.3 3.6 2 5.3.2.9.7 1.8.9 2.6.4.9.7 1.6 1.1 2.4.7 1.6 1.3 3.1 2 4.7s1.3 2.7 2 4.2c.7 1.3 1.1 2.6 1.8 3.6 1.1 2.2 2.2 4.6 3.1 6.2 1.8 3.5 2.7 5.5 2.7 5.5l-15.5 7.6z"/></g><g id="XMLID_131_"><circle id="XMLID_132_" class="st0" cx="20.4" cy="13.1" r="13.1"/></g></g></g><g id="XMLID_121_"><g id="XMLID_127_"><path id="XMLID_128_" class="st0" d="M329.9 169.8h28.3c14.4 0 25.9-11.7 25.9-25.9v-31c0-14.4-11.7-25.9-25.9-25.9h-28.3v82.8z"/></g><g id="XMLID_122_"><g id="XMLID_125_"><path id="XMLID_126_" class="st0" d="M382.1 153.7s.9-2 2.6-5.7c.7-1.8 1.8-3.8 2.7-6.6.5-1.3 1.1-2.7 1.6-4.2.5-1.6 1.3-3.1 1.8-4.7s1.1-3.3 1.8-5.1c.2-.9.7-1.8.9-2.7.2-.9.5-2 .7-2.7.5-2 1.1-4 1.6-5.8.2-1.1.5-2 .7-3.1s.5-2.2.7-3.1c.2-1.1.5-2.2.7-3.1.2-.5.2-1.1.2-1.6.2-.5.2-1.1.2-1.6.4-2.2.7-4.6 1.1-6.7.2-2.2.5-4.6.7-6.9l.2-1.8c0-.7 0-1.1.2-1.8l.2-3.6.2-3.5c0-1.1 0-2.2-.2-3.5 0-1.1-.2-2.2-.2-3.5v-1.8c0-.7-.2-1.1-.2-1.8-.2-2.2-.4-4.6-.7-6.7-.2-2.2-.7-4.6-1.1-6.6-.2-2.2-.7-4.2-1.3-6.2-.2-1.1-.5-2-.7-3.1-.2-.5-.2-1.1-.4-1.6s-.2-1.1-.4-1.3c-.5-2-1.1-3.8-1.6-5.7-.2-.5-.2-.9-.4-1.3s-.2-.9-.5-1.3c-.2-.9-.7-1.6-.9-2.6-.7-1.6-1.1-3.1-1.6-4.7-.7-1.3-1.1-2.7-1.6-4s-1.1-2.6-1.6-3.6c-.5-1.1-1.1-2-1.3-3.1-1.6-3.6-2.7-5.8-2.7-5.8l-7.3 3.5s.7 2 2.2 5.7c.4.9.7 2 1.1 2.9.4 1.1.7 2.2 1.3 3.6.4 1.3.9 2.6 1.3 4 .4 1.3.9 2.9 1.3 4.6.2.7.5 1.6.7 2.4.2.4.2.7.4 1.3.2.4.2.9.2 1.3.4 1.6.7 3.5 1.1 5.1.2.5.2.9.2 1.3.2.5.2.9.2 1.3.2.9.2 2 .5 2.7.2 2 .7 3.8.9 5.8s.4 4 .7 6c.2 2 .2 4 .2 6.2v3.2c0 1.1-.2 2.2-.2 3.1 0 1.1 0 2.2-.2 3.1l-.2 3.1-.2 3.1c0 .5-.2 1.1-.2 1.6l-.2 1.6c-.4 2-.7 4.2-1.1 6.2-.5 2-.9 4-1.3 6-.2.5-.2 1.1-.4 1.6s-.2 1.1-.4 1.6c-.2 1.1-.5 2-.9 2.9-.2 1.1-.5 2-.7 2.7-.2.9-.5 2-.9 2.7-.7 1.8-1.3 3.6-2 5.3-.2.9-.7 1.8-.9 2.6-.4.9-.7 1.6-1.1 2.4-.7 1.6-1.3 3.1-2 4.7s-1.3 2.7-2 4.2c-.7 1.3-1.1 2.6-1.8 3.6-1.1 2.2-2.2 4.6-3.1 6.2-1.8 3.5-2.7 5.5-2.7 5.5l16.1 7.8z"/></g><g id="XMLID_123_"><circle id="XMLID_124_" class="st0" cx="381" cy="13.1" r="13.1"/></g></g></g><path class="st0" d="M164 124.2c-1.8 11.1-9.8-.2-22.1-2.2-12.2-2-23.5 6.6-21.7-4.7s12.9-18.8 25-17c11.8 2 20.4 12.6 18.8 23.9zm117-6.9c1.8 11.3-9.7 2.7-21.7 4.7s-20.2 13.3-22.1 2.2c-1.8-11.3 6.7-21.9 18.8-23.7 12.1-2 23.2 5.6 25 16.8z"/><path class="st0" d="M352.5 87c-10.4-28.6-36.7-50.3-69.5-53.8l-27.4-2.7c-36.5-3.8-73.3-3.8-110 0l-27.4 2.7C85.4 36.7 58.9 58.4 48.5 87c-3.8 10.4-5.5 21.7-4.6 33.2l2.2 27.9c.5 7.5 2.2 14.8 4.7 21.7 10 27.2 34.5 47.6 64.6 52.3 28.1 4.6 56.4 6.7 84.8 6.7s56.7-2.2 84.8-6.7c19-3.1 35.6-12.2 47.8-25.4 7.3-7.8 13.1-17 16.8-27.2 2.6-6.9 4.2-14 4.7-21.7l2.2-27.9c1.3-11.4-.3-22.7-4-32.9zm-30.1 29.5l-2.2 27.9c-1.8 23.2-19 41.8-41.8 45.6-25.5 4-51.8 6.2-77.9 6.2s-52.3-2.2-78.1-6.4c-22.8-3.8-40.1-22.6-41.8-45.6l-2.2-27.9c-2-27 17.7-50.5 44.7-53.6l26.6-2.7c16.6-1.8 33.7-2.7 50.5-2.7s33.7.9 50.5 2.7l26.6 2.7c27.6 3.1 47.3 26.7 45.1 53.8z"/><path class="st0" d="M164 124.2c-1.8 11.1-9.8-.2-22.1-2.2-12.2-2-23.5 6.6-21.7-4.7s12.9-18.8 25-17c11.8 2 20.4 12.6 18.8 23.9zm95.5-2.2c-12 2-20.2 13.3-22.1 2.2-1.8-11.3 6.7-21.9 18.8-23.7 12-2 23.2 5.8 25 17 1.7 11.1-9.6 2.7-21.7 4.5z"/><path id="XMLID_120_" class="st0" d="M164 124.2c-1.8 11.1-9.8-.2-22.1-2.2-12.2-2-23.5 6.6-21.7-4.7s12.9-18.8 25-17c11.8 2 20.4 12.6 18.8 23.9zm95.5-2.2c-12 2-20.2 13.3-22.1 2.2-1.8-11.3 6.7-21.9 18.8-23.7 12-2 23.2 5.8 25 17 1.7 11.1-9.6 2.7-21.7 4.5z"/><path class="st0" d="M227.6 157.6c0 6.9-2.7 13.1-7.3 17.7s-10.8 7.3-17.7 7.3h-4.2c-13.9 0-25-11.1-25-25 0-1.3.5-2.6 1.5-3.3.9-.9 2-1.5 3.3-1.5h44.7c2.7 0 4.7 2.2 4.7 4.8z"/><path d="M615.8 18v181.1h-40.2v-74.2h-78.8v74.2h-40.2V18h40.2v71.4h78.8V18h40.2zm22.6 111.5c0-41.9 31-71.7 73.4-71.7s73.1 29.8 73.1 71.7-30.7 71.7-73.1 71.7c-42.5 0-73.4-29.8-73.4-71.7zm107.3 0c0-24.1-14.6-38.5-34-38.5s-34.2 14.5-34.2 38.5c0 24.1 14.9 38.5 34.2 38.5s34-14.4 34-38.5zm156.9 62.9c-7.9 6-19.6 8.8-31.5 8.8-31.5 0-49.8-16.8-49.8-49.9V94.1h-20.6v-31h20.6v-34H860V63h33.2v31H860v56.7c0 11.9 6.2 18.4 16.6 18.4 5.7 0 11.4-1.8 15.6-5.2l10.4 28.5zm183.7-42.7c0 31.3-23.8 49.4-69.4 49.4h-89.7V18h84.8c43.4 0 65.7 18.9 65.7 47.1 0 18.1-8.9 32.1-23.1 39.8 19.3 6.5 31.7 22 31.7 44.8zM967 49.6v42.7h39.9c19.6 0 30.2-7.2 30.2-21.5s-10.7-21.2-30.2-21.2H967zm78.9 95.7c0-15.3-11.2-22.5-32-22.5H967v44.8h46.8c20.9-.1 32.1-6.8 32.1-22.3zm58.2-15.8c0-41.9 31-71.7 73.4-71.7s73.1 29.8 73.1 71.7-30.7 71.7-73.1 71.7-73.4-29.8-73.4-71.7zm107.3 0c0-24.1-14.6-38.5-34-38.5s-34.2 14.5-34.2 38.5c0 24.1 14.9 38.5 34.2 38.5s34-14.4 34-38.5zm151 62.9c-7.9 6-19.6 8.8-31.5 8.8-31.5 0-49.8-16.8-49.8-49.9V94.1h-20.6v-31h20.6v-34h38.7V63h33.2v31h-33.2v56.7c0 11.9 6.2 18.4 16.6 18.4 5.7 0 11.4-1.8 15.6-5.2l10.4 28.5z" fill="#1a8dff"/><path class="st0" d="M1609.6 18l-74.3 181.1H1487L1412.9 18h53l47.1 118 48.1-118h48.5zm140.3 8.2c11.6 5.4 20.5 13.2 26.8 23.3s9.4 21.9 9.4 35.6c0 13.6-3.1 25.4-9.4 35.4s-15.2 17.7-26.8 23.2c-11.6 5.4-25.2 8.1-40.9 8.1h-30.2v47.3h-49.1V18h79.3c15.7 0 29.3 2.7 40.9 8.2zm-21.1 78.3c5.1-4.6 7.7-11.1 7.7-19.5s-2.6-15-7.7-19.7-12.7-7-22.8-7h-27.3v53h27.3c10.1.1 17.7-2.2 22.8-6.8zM1970 18v181.1h-40.4l-76.6-96.5v96.5h-48.1V18h40.4l76.6 96.5V18h48.1z"/></svg>