<svg version="1.1" id="Layer_1" xmlns="http://www.w3.org/2000/svg" x="0" y="0" viewBox="0 0 507.2 419.7" xml:space="preserve"><style>.st1{fill:#9fffd9}.st2{fill:#a5acb2}.st3{fill:#b2feff}.st4{fill:#fff0b7}.st5{fill:#ffc8fa}.st6{fill:#ffc2c2}.st7{fill:#435c71}.st8,.st9{fill:none;stroke:#a5acb2;stroke-width:3;stroke-linecap:round}.st9{stroke-linejoin:round}</style><g id="background_icons_left_online" transform="translate(38.167 -95.333)" opacity=".5"><g id="Path_123"><path class="st1" d="M290.9 224.5h-46.3l-.4-.8-22.2-38.5-.4-.8.4-.8 22.2-38.5.4-.8h46.3l.4.8 22.2 38.5.4.8-.4.8-22.2 38.5-.4.8z" transform="translate(-149.206 -32.5)"/><path class="st2" d="M245.6 146l-22.2 38.5 22.2 38.5h44.5l22.2-38.5-22.2-38.5h-44.5m0-3h44.5c1.1 0 2.1.6 2.6 1.5l22.2 38.5c.5.9.5 2.1 0 3l-22.2 38.5c-.5.9-1.5 1.5-2.6 1.5h-44.5c-1.1 0-2.1-.6-2.6-1.5L220.8 186c-.5-.9-.5-2.1 0-3l22.2-38.5c.5-.9 1.5-1.5 2.6-1.5z" transform="translate(-149.206 -32.5)"/></g><g id="Path_125"><path class="st3" d="M290.9 224.5h-46.3l-.4-.8-22.2-38.5-.4-.8.4-.8 22.2-38.5.4-.8h46.3l.4.8 22.2 38.5.4.8-.4.8-22.2 38.5-.4.8z" transform="translate(-76.207 61.5)"/><path class="st2" d="M245.6 146l-22.2 38.5 22.2 38.5h44.5l22.2-38.5-22.2-38.5h-44.5m0-3h44.5c1.1 0 2.1.6 2.6 1.5l22.2 38.5c.5.9.5 2.1 0 3l-22.2 38.5c-.5.9-1.5 1.5-2.6 1.5h-44.5c-1.1 0-2.1-.6-2.6-1.5L220.8 186c-.5-.9-.5-2.1 0-3l22.2-38.5c.5-.9 1.5-1.5 2.6-1.5z" transform="translate(-76.207 61.5)"/></g><g id="Path_126"><path class="st4" d="M290.9 224.5h-46.3l-.4-.8-22.2-38.5-.4-.8.4-.8 22.2-38.5.4-.8h46.3l.4.8 22.2 38.5.4.8-.4.8-22.2 38.5-.4.8z" transform="translate(-175.207 133.5)"/><path class="st2" d="M245.6 146l-22.2 38.5 22.2 38.5h44.5l22.2-38.5-22.2-38.5h-44.5m0-3h44.5c1.1 0 2.1.6 2.6 1.5l22.2 38.5c.5.9.5 2.1 0 3l-22.2 38.5c-.5.9-1.5 1.5-2.6 1.5h-44.5c-1.1 0-2.1-.6-2.6-1.5L220.8 186c-.5-.9-.5-2.1 0-3l22.2-38.5c.5-.9 1.5-1.5 2.6-1.5z" transform="translate(-175.207 133.5)"/></g><g id="Path_127"><path class="st5" d="M290.9 224.5h-46.3l-.4-.8-22.2-38.5-.4-.8.4-.8 22.2-38.5.4-.8h46.3l.4.8 22.2 38.5.4.8-.4.8-22.2 38.5-.4.8z" transform="translate(-151.207 270.5)"/><path class="st2" d="M245.6 146l-22.2 38.5 22.2 38.5h44.5l22.2-38.5-22.2-38.5h-44.5m0-3h44.5c1.1 0 2.1.6 2.6 1.5l22.2 38.5c.5.9.5 2.1 0 3l-22.2 38.5c-.5.9-1.5 1.5-2.6 1.5h-44.5c-1.1 0-2.1-.6-2.6-1.5L220.8 186c-.5-.9-.5-2.1 0-3l22.2-38.5c.5-.9 1.5-1.5 2.6-1.5z" transform="translate(-151.207 270.5)"/></g><g id="Path_128"><path class="st6" d="M290.9 224.5h-46.3l-.4-.8-22.2-38.5-.4-.8.4-.8 22.2-38.5.4-.8h46.3l.4.8 22.2 38.5.4.8-.4.8-22.2 38.5-.4.8z" transform="translate(-51.207 190.5)"/><path class="st2" d="M245.6 146l-22.2 38.5 22.2 38.5h44.5l22.2-38.5-22.2-38.5h-44.5m0-3h44.5c1.1 0 2.1.6 2.6 1.5l22.2 38.5c.5.9.5 2.1 0 3l-22.2 38.5c-.5.9-1.5 1.5-2.6 1.5h-44.5c-1.1 0-2.1-.6-2.6-1.5L220.8 186c-.5-.9-.5-2.1 0-3l22.2-38.5c.5-.9 1.5-1.5 2.6-1.5z" transform="translate(-51.207 190.5)"/></g><g id="Path_129"><path class="st5" d="M290.9 224.5h-46.3l-.4-.8-22.2-38.5-.4-.8.4-.8 22.2-38.5.4-.8h46.3l.4.8 22.2 38.5.4.8-.4.8-22.2 38.5-.4.8z" transform="translate(16.793 -33.5)"/><path class="st2" d="M245.6 146l-22.2 38.5 22.2 38.5h44.5l22.2-38.5-22.2-38.5h-44.5m0-3h44.5c1.1 0 2.1.6 2.6 1.5l22.2 38.5c.5.9.5 2.1 0 3l-22.2 38.5c-.5.9-1.5 1.5-2.6 1.5h-44.5c-1.1 0-2.1-.6-2.6-1.5L220.8 186c-.5-.9-.5-2.1 0-3l22.2-38.5c.5-.9 1.5-1.5 2.6-1.5z" transform="translate(16.793 -33.5)"/></g><g id="_012-unlock" transform="translate(11.869 294.333)"><g id="Group_190" transform="translate(63.772)"><path id="Path_124" class="st7" d="M32 19.4h-1.9v-6.6c0-7-5.7-12.7-12.8-12.8-7 0-12.8 5.7-12.8 12.8v.1h4.6v-.1c0-2.2.9-4.3 2.4-5.8.4-.4.8-.7 1.2-1 1.4-.9 3-1.4 4.6-1.4 4.5 0 8.2 3.7 8.2 8.2v6.6H2.7c-1.5 0-2.7 1.2-2.7 2.7v22c0 1.5 1.2 2.7 2.7 2.7H32c1.5 0 2.7-1.2 2.7-2.7v-22c0-1.5-1.2-2.7-2.7-2.7zm-11.9 19h-5.4l1-4.6c-1.5-1-2-3-1-4.5s3-2 4.5-1 2 3 1 4.5c-.3.4-.6.8-1 1l.9 4.6z"/></g></g><path id="Path_136" class="st8" d="M-12.3 152h84.7"/><path id="Path_139" class="st8" d="M-36.7 318h82.8"/><path id="Path_140" class="st9" d="M-8.3 124.5h76L85 96.8h81l38.7 53.7H237"/><g id="_006-shield" transform="translate(55.4 122.448)"><g id="Group_196" transform="translate(37.7)"><g id="Group_195"><path id="Path_157" class="st7" d="M49.5 10.2C41.2 7.9 33.3 4.5 25.8.2c-.4-.2-.9-.2-1.3 0C17.1 4.6 9.1 8 .8 10.2c-.4.1-.8.6-.8 1.2v12.7c-.1 10 3.9 19.7 11.1 26.7 5.4 5.3 11.8 8.3 14.1 8.3 2.3 0 8.7-3 14.1-8.3 7.2-7 11.2-16.7 11.1-26.7V11.4c0-.6-.4-1.1-.9-1.2z"/><path id="Path_158" class="st7" d="M14.2 12.2c-.3-.6-1-1-1.6-.7-2.2.9-4.5 1.7-6.8 2.4-.5.2-.9.6-.9 1.2v4.8c0 .7.6 1.2 1.3 1.2.7 0 1.2-.6 1.2-1.2V16c2-.7 4.1-1.4 6.1-2.2.6-.2.9-.9.7-1.6z"/><path id="Path_159" class="st7" d="M16.5 12.4c.2 0 .3 0 .5-.1.6-.3.9-1 .6-1.7-.3-.6-1-.9-1.6-.6-.6.3-.9 1-.6 1.6.2.6.7.8 1.1.8z"/><path id="Path_160" class="st7" d="M40 40.1c-.6-.4-1.3-.2-1.7.3-1 1.6-2.2 3.1-3.6 4.5-1.1 1.1-2.3 2.2-3.6 3.2-.5.4-.6 1.2-.2 1.7.2.3.6.5 1 .5.3 0 .5-.1.8-.3 1.4-1 2.7-2.2 3.8-3.4 1.4-1.5 2.7-3.1 3.9-4.8.3-.6.2-1.3-.4-1.7z"/><path id="Path_161" class="st7" d="M28.3 50c-.7.4-.9 1.2-.5 1.7.3.6 1.1.8 1.7.5h.1c.6-.3.8-1.1.5-1.7-.5-.6-1.2-.8-1.8-.5z"/><path id="Path_162" class="st7" d="M35.4 20.8c.6-.6 1.6-.7 2.2-.1.6.6.7 1.6.1 2.2l-.1.1-15.3 15.3c-.6.6-1.6.6-2.2 0L12.8 31c-.6-.6-.5-1.6.1-2.2.6-.5 1.5-.5 2.1 0l5.4 5.4c.2.2.5.4.9.4.3 0 .6-.1.9-.4l13.2-13.4z"/></g></g></g><g id="_005-shield" transform="translate(58.466 126.001)"><g id="Group_194" transform="translate(37.681)"><g id="Group_193"><path id="Path_151" class="st1" d="M43.5 9C36.2 7 29.2 4 22.7.2c-.3-.2-.8-.2-1.1 0C15.1 4 8.1 7 .8 9c-.5.1-.8.5-.8 1v11.2C-.1 30 3.4 38.5 9.8 44.7c4.8 4.7 10.4 7.3 12.4 7.3s7.6-2.6 12.4-7.3c6.3-6.2 9.9-14.7 9.8-23.5V10c-.1-.5-.4-.9-.9-1zm-1.3 12.2c.1 8.3-3.2 16.2-9.1 21.9-4.7 4.6-9.8 6.7-10.9 6.7s-6.2-2.1-10.9-6.7c-5.9-5.7-9.2-13.7-9.1-21.9V10.9c7-2 13.7-4.8 20-8.5 6.3 3.6 13 6.5 20 8.5v10.3z"/><path id="Path_152" class="st1" d="M12.5 10.7c-.2-.6-.9-.8-1.4-.6-2 .8-4 1.5-6 2.1-.5.1-.8.6-.8 1v4.2c0 .6.5 1.1 1.1 1.1s1.1-.5 1.1-1.1V14c1.8-.6 3.6-1.2 5.3-1.9.6-.2.9-.8.7-1.4z"/><path id="Path_153" class="st1" d="M14.6 11c.2 0 .3 0 .4-.1.6-.2.8-.9.6-1.4-.2-.6-.9-.8-1.4-.6h-.1c-.6.2-.8.9-.6 1.4.2.4.6.7 1.1.7z"/><path id="Path_154" class="st1" d="M35.2 35.3c-.5-.3-1.2-.2-1.5.3-.9 1.4-2 2.7-3.1 3.9-1 1-2 1.9-3.1 2.8-.5.4-.6 1-.2 1.5.4.5 1 .6 1.5.2 1.2-.9 2.3-1.9 3.4-3 1.3-1.3 2.4-2.7 3.4-4.2.3-.5.1-1.2-.4-1.5z"/><path id="Path_155" class="st1" d="M24.9 44c-.6.3-.8 1-.5 1.5.3.5 1 .7 1.5.4h.1c.5-.3.7-1 .4-1.5-.3-.5-.9-.7-1.5-.4z"/><path id="Path_156" class="st1" d="M14.7 23.8c-1.4-1.4-3.6-1.4-5-.1s-1.4 3.6-.1 5l.1.1 6.5 6.5c1.4 1.4 3.6 1.4 5 0l13.5-13.5c1.4-1.4 1.3-3.7-.1-5-1.4-1.3-3.6-1.3-5 0l-11 11-3.9-4zm16.5-5.5c.5-.5 1.4-.5 1.9 0s.5 1.4 0 1.9L19.6 33.7c-.5.5-1.4.5-1.9 0l-6.5-6.5c-.5-.5-.5-1.4 0-1.9s1.4-.5 1.9 0l4.7 4.7c.4.4 1.1.4 1.5 0l11.9-11.7z"/></g></g></g><g id="_010-wifi" transform="translate(257.962 128.657)"><path id="Path_215" class="st7" d="M27 38.5c-2.6 0-4.8 2.1-4.8 4.8 0 2.6 2.1 4.8 4.8 4.8 2.6 0 4.8-2.1 4.8-4.8 0-2.7-2.1-4.8-4.8-4.8z"/><path id="Path_216" class="st7" d="M27 .5C17.4.5 8.1 3.7.6 9.7c-.7.5-.8 1.5-.3 2.2l2.2 2.8c.5.7 1.5.8 2.2.2C17.9 4.4 36.5 4.1 50 14.2c.7.5 1.7.4 2.2-.3l1.6-2c.5-.7.4-1.7-.3-2.2C46 3.7 36.6.5 27 .5z"/><path id="Path_217" class="st7" d="M27 13.2c-6.8 0-13.4 2.3-18.7 6.5-.7.5-.8 1.5-.2 2.2l2.2 2.8c.6.7 1.6.8 2.2.2 8.6-6.9 20.8-7.2 29.7-.7.7.5 1.6.4 2.2-.3l1.6-2c.5-.7.4-1.7-.3-2.2-5.3-4.3-11.9-6.6-18.7-6.5z"/><path id="Path_218" class="st7" d="M16.2 29.6c-.6.6-.7 1.5-.2 2.2l2.2 2.8c.5.7 1.5.8 2.2.3 4-3.3 9.8-3.6 14.1-.6.7.4 1.6.3 2.1-.4l1.6-2c.5-.7.4-1.6-.2-2.2-6.5-5-15.4-5-21.8-.1z"/></g><g id="Path_227"><path class="st4" d="M290.9 224.5h-46.3l-.4-.8-22.2-38.5-.4-.8.4-.8 22.2-38.5.4-.8h46.3l.4.8 22.2 38.5.4.8-.4.8-22.2 38.5-.4.8z" transform="translate(40.793 99.5)"/><path class="st2" d="M245.6 146l-22.2 38.5 22.2 38.5h44.5l22.2-38.5-22.2-38.5h-44.5m0-3h44.5c1.1 0 2.1.6 2.6 1.5l22.2 38.5c.5.9.5 2.1 0 3l-22.2 38.5c-.5.9-1.5 1.5-2.6 1.5h-44.5c-1.1 0-2.1-.6-2.6-1.5L220.8 186c-.5-.9-.5-2.1 0-3l22.2-38.5c.5-.9 1.5-1.5 2.6-1.5z" transform="translate(40.793 99.5)"/></g><g id="headphones" transform="translate(189 325.469)"><g id="Group_208" transform="translate(0 24.136)"><path id="Path_228" class="st7" d="M27.7 0C12.3.1-.1 12.6 0 27.9 0 32.5 1.2 37 3.4 41v-7.3c0-1.3.5-2.6 1.3-3.7-.1-.7-.1-1.5-.1-2.2C4.6 15 14.9 4.7 27.7 4.6c12.8 0 23.1 10.5 23.1 23.3 0 .8 0 1.6-.1 2.4.7 1 1.1 2.2 1.1 3.5v7.7C59.3 28 54.5 11.1 41.2 3.6 37 1.2 32.4 0 27.7 0z"/><path id="Path_229" class="st7" d="M5.1 32.5c-.1.4-.2.8-.2 1.2v10.4c0 3.2 3.8 5.8 8.5 5.8H17v-22h-3.6c-4.1 0-7.5 2-8.3 4.6z"/><path id="Path_230" class="st7" d="M50.2 44.1V33.7c0-.2 0-.5-.1-.7-.5-2.9-4.1-5.1-8.4-5.1h-3.6v22h3.6c4.7 0 8.5-2.6 8.5-5.8z"/></g></g><path id="gamepad" class="st7" d="M335.9 291.6c-.3-6.2-2-13.8-4.6-18.4-6-10.7-13-4.6-22.1-3.8h-.8c-9.1-.8-16.1-6.9-22.1 3.8-2.5 4.5-4.3 12.2-4.6 18.4-.7 15 7.8 10.9 15.8 3.4 5-4.7 17.7-4.7 22.7 0 7.9 7.6 16.4 11.6 15.7-3.4zm-36.6-8.3h-1v1c0 1.5-1.2 2.8-2.8 2.8-1.5 0-2.8-1.2-2.8-2.8v-1h-1c-1.5 0-2.8-1.3-2.8-2.8 0-1.5 1.2-2.8 2.8-2.8h1v-1c0-1.5 1.2-2.8 2.8-2.8 1.5 0 2.8 1.2 2.8 2.8v1h1c1.5 0 2.8 1.3 2.8 2.8 0 1.6-1.3 2.8-2.8 2.8zm16.8-.3c-1.3 0-2.4-1-2.4-2.4v-.1c0-1.4 1.1-2.4 2.4-2.4s2.4 1.1 2.4 2.4-1.1 2.5-2.4 2.5zm5 5c-1.4 0-2.4-1.1-2.4-2.4s1.1-2.4 2.4-2.4 2.4 1.1 2.4 2.4c.1 1.3-1 2.4-2.4 2.4zm0-10c-1.3 0-2.4-1.1-2.4-2.4 0-1.3 1.1-2.4 2.4-2.4 1.4 0 2.4 1.1 2.4 2.4.1 1.3-1 2.3-2.4 2.4zm5.1 5c-1.3 0-2.4-1-2.4-2.4v-.1c0-1.4 1.1-2.4 2.4-2.4s2.4 1.1 2.4 2.4-1.1 2.5-2.4 2.5z"/><g id="Path_231"><path class="st1" d="M290.9 224.5h-46.3l-.4-.8-22.2-38.5-.4-.8.4-.8 22.2-38.5.4-.8h46.3l.4.8 22.2 38.5.4.8-.4.8-22.2 38.5-.4.8z" transform="translate(75.793 239.5)"/><path class="st2" d="M245.6 146l-22.2 38.5 22.2 38.5h44.5l22.2-38.5-22.2-38.5h-44.5m0-3h44.5c1.1 0 2.1.6 2.6 1.5l22.2 38.5c.5.9.5 2.1 0 3l-22.2 38.5c-.5.9-1.5 1.5-2.6 1.5h-44.5c-1.1 0-2.1-.6-2.6-1.5L220.8 186c-.5-.9-.5-2.1 0-3l22.2-38.5c.5-.9 1.5-1.5 2.6-1.5z" transform="translate(75.793 239.5)"/></g><g id="_002-phone-1" transform="translate(321.625 402.625)"><g id="Group_210" transform="translate(22.375 11.934)"><g id="Group_209"><path id="Path_232" class="st7" d="M1.5 0C.7 0 0 .7 0 1.5.1 2.3.7 3 1.5 3c3.3 0 6 2.7 6 6 0 .8.7 1.5 1.5 1.5s1.4-.7 1.5-1.5c-.1-5-4.1-9-9-9z"/></g></g><g id="Group_212" transform="translate(22.375 5.967)"><g id="Group_211"><path id="Path_233" class="st7" d="M1.5 0C.7 0 0 .7 0 1.5.1 2.3.7 3 1.5 3c6.6 0 11.9 5.3 11.9 11.9 0 .8.7 1.5 1.5 1.5s1.4-.7 1.5-1.5C16.4 6.7 9.7 0 1.5 0z"/></g></g><g id="Group_214" transform="translate(22.375)"><g id="Group_213"><path id="Path_234" class="st7" d="M1.5 0C.7 0 0 .7 0 1.5.1 2.3.7 3 1.5 3c9.9 0 17.9 8 17.9 17.9 0 .8.7 1.5 1.5 1.5s1.4-.7 1.5-1.5C22.4 9.4 13 0 1.5 0z"/></g></g><g id="Group_216" transform="translate(0 2.983)"><g id="Group_215"><path id="Path_235" class="st7" d="M40.3 29.8c-4.2 0-8.4-.9-12.3-2.8-.4-.2-.8-.2-1.1-.1-.4.1-.7.4-.9.8l-2.3 4.9c-6.1-3.4-11.1-8.4-14.5-14.5l4.9-2.4c.7-.4 1.1-1.2.7-2-1.9-3.8-2.8-8-2.8-12.3 0-.8-.7-1.5-1.5-1.5h-9C.7 0 0 .7 0 1.5c0 22.2 18 40.3 40.3 40.3.8 0 1.5-.7 1.5-1.5v-9c0-.8-.7-1.5-1.5-1.5z"/></g></g></g><g id="_004-cloud-computing" transform="translate(101.467 215.897)"><g id="Group_217" transform="translate(67.3)"><path id="Path_236" class="st7" d="M34.4 33.2c5.9-.5 10.4-5.4 10.4-11.4 0-5.1-3.4-9.7-8.3-11.1C35.4 4.5 29.9 0 23.6 0 19 0 14.7 2.5 12.4 6.5c-.4-.1-.9-.1-1.4-.1-3.9 0-7.1 3.2-7.1 7.1 0 .5.1 1 .2 1.4-2.5 1.9-4.1 4.8-4.1 8 0 5.3 4.3 10 9.3 10.3h25.1c-.1 0-.1 0 0 0z"/><path id="Path_237" class="st7" d="M22.4 37.4c-.7 0-1.2.6-1.2 1.2v14.6c-2.3.7-3.5 3.1-2.8 5.4.5 1.8 2.1 3 4 3h.1c2.4 0 4.3-1.9 4.3-4.3 0-1.9-1.2-3.5-3-4.1V38.7c-.2-.7-.7-1.3-1.4-1.3zm1.3 18.7c.7.7.7 1.9-.1 2.5-.3.3-.8.5-1.2.5h-.1c-1 0-1.8-.8-1.8-1.8s.8-1.8 1.8-1.8h.1c.5.1 1 .3 1.3.6z"/><path id="Path_238" class="st7" d="M14.4 38.7v7c0 1.2-1 2.2-2.2 2.2H8.5c-.7-2.3-3.1-3.6-5.4-2.9-2.3.7-3.6 3.1-2.9 5.4.7 2.3 3.1 3.6 5.4 2.9 1.4-.4 2.5-1.5 2.9-2.9h3.7c2.6 0 4.7-2.1 4.7-4.7v-7c0-.7-.6-1.2-1.2-1.2-.8-.1-1.3.5-1.3 1.2zm-10 12.2c-1 0-1.8-.8-1.8-1.8s.8-1.8 1.8-1.8 1.8.8 1.8 1.8-.8 1.8-1.8 1.8z"/><path id="Path_239" class="st7" d="M32.6 50.3h3.7c.7 2.3 3.1 3.6 5.4 2.9 2.3-.7 3.6-3.1 2.9-5.4s-3.1-3.6-5.4-2.9c-1.4.4-2.5 1.5-2.9 2.9h-3.7c-1.2 0-2.2-1-2.2-2.2v-7c0-.7-.6-1.2-1.2-1.2-.7 0-1.2.6-1.2 1.2v7c-.1 2.6 2 4.7 4.6 4.7zm7.7-3c1 0 1.8.8 1.8 1.8s-.8 1.8-1.8 1.8-1.8-.8-1.8-1.8.8-1.8 1.8-1.8z"/></g></g><g id="zoom-in" transform="rotate(9 -2650.224 798.07)"><path id="Path_240" class="st7" d="M42.3 35.1l-7.5 7.1 11.7 9.5c.7.5 1.5.8 2.3.8 1 0 1.9-.4 2.6-1.1 1.3-1.3 1.4-3.5.2-4.9l-9.3-11.4z"/><path id="Path_241" class="st7" d="M35.8 28.3c-.9 1.5-2 3-3.3 4.2-1.3 1.3-2.7 2.4-4.2 3.3.4 1 1 1.8 1.8 2.4l2.4 1.9 7.9-7.5-2.1-2.6c-.7-.7-1.5-1.3-2.5-1.7z"/><path id="Path_242" class="st7" d="M0 17.8c0 9.8 8 17.8 17.8 17.8 4.7 0 9.2-1.9 12.6-5.2 7-7 7-18.2 0-25.2s-18.2-7-25.2 0C1.9 8.5 0 13.1 0 17.8z"/></g><g id="Path_243"><path class="st6" d="M290.9 224.5h-46.3l-.4-.8-22.2-38.5-.4-.8.4-.8 22.2-38.5.4-.8h46.3l.4.8 22.2 38.5.4.8-.4.8-22.2 38.5-.4.8z" transform="translate(133.793 19.5)"/><path class="st2" d="M245.6 146l-22.2 38.5 22.2 38.5h44.5l22.2-38.5-22.2-38.5h-44.5m0-3h44.5c1.1 0 2.1.6 2.6 1.5l22.2 38.5c.5.9.5 2.1 0 3l-22.2 38.5c-.5.9-1.5 1.5-2.6 1.5h-44.5c-1.1 0-2.1-.6-2.6-1.5L220.8 186c-.5-.9-.5-2.1 0-3l22.2-38.5c.5-.9 1.5-1.5 2.6-1.5z" transform="translate(133.793 19.5)"/></g><g id="Path_244"><path class="st3" d="M290.9 224.5h-46.3l-.4-.8-22.2-38.5-.4-.8.4-.8 22.2-38.5.4-.8h46.3l.4.8 22.2 38.5.4.8-.4.8-22.2 38.5-.4.8z" transform="translate(153.793 167.5)"/><path class="st2" d="M245.6 146l-22.2 38.5 22.2 38.5h44.5l22.2-38.5-22.2-38.5h-44.5m0-3h44.5c1.1 0 2.1.6 2.6 1.5l22.2 38.5c.5.9.5 2.1 0 3l-22.2 38.5c-.5.9-1.5 1.5-2.6 1.5h-44.5c-1.1 0-2.1-.6-2.6-1.5L220.8 186c-.5-.9-.5-2.1 0-3l22.2-38.5c.5-.9 1.5-1.5 2.6-1.5z" transform="translate(153.793 167.5)"/></g><g id="_004-mail" transform="translate(395.5 268.125)"><g id="Group_219" transform="translate(0 64)"><g id="Group_218"><path id="Path_245" class="st7" d="M1.1 3.2c7.3 6.2 20 17 23.8 20.4.8.9 2.2.9 3.1.1l.1-.1c3.8-3.4 16.5-14.2 23.8-20.4.5-.4.5-1.1.2-1.5C51.2.6 49.9 0 48.6 0H4.4C3.1 0 1.8.6 1 1.7c-.4.5-.4 1.1.1 1.5z"/><path id="Path_246" class="st7" d="M52.4 6.6c-.4-.2-.8-.1-1.2.2-4.8 4-11 9.4-15.8 13.4-.5.4-.5 1.1-.1 1.6 0 .1.1.1.2.1 4.4 3.5 11 8.4 15.8 11.8.5.4 1.2.3 1.5-.2.1-.2.2-.4.2-.7V7.6c0-.5-.2-.9-.6-1z"/><path id="Path_247" class="st7" d="M1.7 33.7c4.8-3.4 11.4-8.3 15.8-11.8.5-.4.6-1.1.2-1.5 0-.1-.1-.1-.1-.2-4.7-4.1-11-9.4-15.8-13.4-.4-.5-1.1-.4-1.5 0-.2.2-.3.5-.3.8v25.2c0 .6.5 1.1 1.1 1.1.2 0 .5-.1.6-.2z"/><path id="Path_248" class="st7" d="M51.6 36.7c-4.6-3.3-13.1-9.5-18.2-13.6-.4-.3-1-.3-1.4 0-1 .9-1.8 1.6-2.4 2.1-1.7 1.6-4.4 1.6-6.2 0-.6-.5-1.4-1.2-2.4-2.1-.4-.4-1-.4-1.4 0C14.5 27.2 6 33.4 1.4 36.7c-.5.4-.6 1-.3 1.5l.1.1c.8.9 2 1.4 3.2 1.4h44.2c1.2 0 2.4-.5 3.2-1.4.4-.4.4-1.1 0-1.6h-.2z"/></g></g></g><g id="Network" transform="translate(366.71 165.682)"><path id="Path_249" class="st7" d="M61.1 31.7c-2.8 0-5.2 2-5.6 4.8h-2c-.2-3.6-1.6-7.1-4-9.8l3.8-3.8c.1-.1.2-.2.2-.3 1.8 1.1 4.2.5 5.3-1.3 1.1-1.8.5-4.2-1.3-5.3s-4.2-.5-5.3 1.3c-.8 1.2-.8 2.8 0 4-.1 0-.2.1-.3.2l-3.8 3.8c-2.7-2.4-6.1-3.8-9.8-4v-3.8-.1c2.6-.5 4.2-3 3.7-5.6-.5-2.6-3-4.2-5.6-3.7-2.6.5-4.2 3-3.7 5.6.4 1.9 1.8 3.3 3.7 3.7v3.9c-3.6.2-7.1 1.6-9.8 4l-8.5-8.5c-.1-.1-.2-.2-.3-.2 1.1-1.8.5-4.1-1.3-5.2s-4.1-.5-5.2 1.3-.5 4.1 1.3 5.2c1.2.7 2.8.7 4 0 0 .1.1.2.2.3l8.5 8.5c-2.4 2.7-3.8 6.1-4 9.8h-1.9-.1c-.5-3.1-3.5-5.2-6.6-4.7-3.1.5-5.2 3.5-4.7 6.6.5 3.1 3.5 5.2 6.6 4.7 2.4-.4 4.3-2.3 4.7-4.7h2c.2 3.6 1.6 7 4 9.7 0 .1.1.1.2.2 2.8 3.1 6.8 5 11 5.3v3.9c-2.6.5-4.2 3-3.7 5.6.5 2.6 3 4.2 5.6 3.7s4.2-3 3.7-5.6c-.4-1.9-1.8-3.3-3.7-3.7v-3.9c3.6-.2 7.1-1.6 9.8-4l3.8 3.8c.1.1.2.2.3.2-1.1 1.8-.6 4.2 1.2 5.3 1.8 1.1 4.2.6 5.3-1.2 1.1-1.8.6-4.2-1.2-5.3-1.2-.8-2.8-.8-4 0 0-.1-.1-.2-.2-.3L49.5 48v-.1c2.4-2.7 3.8-6.1 4-9.7h2c.5 3.1 3.4 5.2 6.5 4.7s5.2-3.4 4.7-6.5c-.4-2.7-2.8-4.8-5.6-4.7zm-5.7-14.3c1 0 1.9.9 1.9 1.9s-.9 1.9-1.9 1.9c-1 0-1.9-.9-1.9-1.9s.9-1.9 1.9-1.9zm-40.8-.9c-1 0-1.9-.9-1.9-1.9s.9-1.9 1.9-1.9 1.9.9 1.9 1.9c0 1-.8 1.9-1.9 1.9zm-.9 24.6c-2.1 0-3.8-1.7-3.8-3.8s1.7-3.8 3.8-3.8 3.8 1.7 3.8 3.8c0 2.1-1.7 3.8-3.8 3.8zm41.7 12.4c1 0 1.9.9 1.9 1.9s-.9 1.9-1.9 1.9c-1 0-1.9-.9-1.9-1.9s.9-1.9 1.9-1.9zM34.5 12.7c0-1.6 1.3-2.8 2.8-2.8s2.8 1.3 2.8 2.8-1.3 2.8-2.8 2.8c-1.5 0-2.8-1.2-2.8-2.8zM40.2 62c0 1.6-1.3 2.8-2.8 2.8s-2.8-1.3-2.8-2.8 1.3-2.8 2.8-2.8c1.5 0 2.8 1.2 2.8 2.8zm9-16.8c-.9-3.6-3.5-6.7-6.9-8.2 1.2-1.2 1.8-2.8 1.7-4.4 0-3.7-2.9-6.7-6.6-6.7-3.7 0-6.7 2.9-6.7 6.6v.2c-.1 1.7.6 3.3 1.7 4.4-3.4 1.5-6 4.6-6.9 8.2-4.4-6.5-2.6-15.4 3.9-19.7s15.4-2.6 19.7 3.9c3.3 4.7 3.3 11 .1 15.7zm11.9-4.1c-2.1 0-3.8-1.7-3.8-3.8 0-2.1 1.7-3.8 3.8-3.8 2.1 0 3.8 1.7 3.8 3.8 0 2.1-1.7 3.8-3.8 3.8z"/><path id="Path_250" class="st7" d="M19.6 53.8l-3.8 3.8c-.1.1-.2.2-.2.3-1.8-1.1-4.2-.6-5.3 1.2-1.1 1.8-.6 4.2 1.2 5.3 1.8 1.1 4.2.6 5.3-1.2.8-1.2.8-2.8 0-4 .1 0 .2-.1.3-.2l3.8-3.8c.4-.4.3-1-.1-1.4-.3-.4-.8-.4-1.2 0zM13.7 63c-1 0-1.9-.9-1.9-1.9s.9-1.9 1.9-1.9 1.9.9 1.9 1.9c0 1-.9 1.9-1.9 1.9z"/><path id="Path_251" class="st7" d="M23.4 50l-1.9 1.9c-.4.4-.4 1 0 1.3.4.4 1 .4 1.3 0l1.9-1.9c.4-.4.3-1 0-1.3-.3-.4-.9-.4-1.3 0z"/></g><path id="Path_252" class="st9" d="M-10 210.5h67.5l30 35.5h58"/><path id="Path_253" class="st8" d="M-18 455h87.5"/><path id="Path_254" class="st9" d="M-20 432.5h74.5l25-39H154l29.5 52H247l52.6-93.4h75.8"/><path id="Path_258" class="st9" d="M-11 481h76.5l19 32.5H230l49-90h18.3"/><path id="Path_259" class="st9" d="M-17 261.7h149l30.7 53.3h60.7l18.7-31h21"/><path id="Path_260" class="st9" d="M-15.5 182.5H62l19 27h73l25.5-44.5h46l23 39.5h107"/><path id="Path_261" class="st9" d="M-22.7 401h69l17.3-26.3H170"/></g></svg>