<?xml version="1.0" encoding="UTF-8"?>
<svg id="Layer_2" data-name="Layer 2" xmlns="http://www.w3.org/2000/svg" xmlns:xlink="http://www.w3.org/1999/xlink" viewBox="0 0 145.37 111.43">
  <defs>
    <style>
      .cls-1 {
        fill: url(#linear-gradient);
      }

      .cls-2 {
        fill: url(#linear-gradient-3);
      }

      .cls-3 {
        fill: url(#linear-gradient-2);
      }
    </style>
    <linearGradient id="linear-gradient" x1="63.14" y1="2.02" x2="63.14" y2="113.45" gradientTransform="translate(0 113.45) scale(1 -1)" gradientUnits="userSpaceOnUse">
      <stop offset="0" stop-color="#82b3ff"/>
      <stop offset="1" stop-color="#662d91"/>
    </linearGradient>
    <linearGradient id="linear-gradient-2" x1="112.33" y1="16.38" x2="112.33" y2="74.92" gradientTransform="translate(0 113.45) scale(1 -1)" gradientUnits="userSpaceOnUse">
      <stop offset="0" stop-color="#662d91"/>
      <stop offset="1" stop-color="#82b3ff"/>
    </linearGradient>
    <linearGradient id="linear-gradient-3" x1="11.58" y1="76" x2="49.13" y2="76" xlink:href="#linear-gradient-2"/>
  </defs>
  <g id="Layer_1-2" data-name="Layer 1">
    <g>
      <path class="cls-1" d="m56.51,3.82c3-5.1,10.4-5.1,13.3,0l27.7,48,27.7,48c3,5.1-.7,11.6-6.7,11.6H7.71c-5.9,0-9.6-6.4-6.7-11.6l27.7-48L56.51,3.82Z"/>
      <path class="cls-3" d="m108.11,40.92c1.9-3.2,6.5-3.2,8.4,0l14.1,24.4,14.1,24.4c1.9,3.2-.5,7.2-4.2,7.2h-56.4c-3.7,0-6-4-4.2-7.2l14.1-24.4,14.1-24.4Z"/>
      <path class="cls-2" d="m26.91,22.63c1.5-2.6,5.3-2.6,6.9,0l7.4,12.8,7.4,12.8c1.5,2.6-.4,6-3.4,6H15.51c-3.1,0-5-3.3-3.4-6l7.4-12.8,7.4-12.8Z"/>
    </g>
  </g>
</svg>