<?xml version="1.0" encoding="utf-8"?>
<!-- Generator: Adobe Illustrator 26.5.2, SVG Export Plug-In . SVG Version: 6.00 Build 0)  -->
<svg version="1.1" id="Layer_1" xmlns="http://www.w3.org/2000/svg" xmlns:xlink="http://www.w3.org/1999/xlink" x="0px" y="0px"
	 viewBox="0 0 507.2 419.7" style="enable-background:new 0 0 507.2 419.7;" xml:space="preserve">
<style type="text/css">
	.st0{opacity:0.5;}
	.st1{fill:#9FFFD9;}
	.st2{fill:#A5ACB2;}
	.st3{fill:#B2FEFF;}
	.st4{fill:#FFF0B7;}
	.st5{fill:#FFC8FA;}
	.st6{fill:#FFC2C2;}
	.st7{fill:#435C71;}
	.st8{fill:none;stroke:#A5ACB2;stroke-width:3;stroke-linecap:round;}
	.st9{fill:none;stroke:#A5ACB2;stroke-width:3;stroke-linecap:round;stroke-linejoin:round;}
</style>
<g id="background_icons_right_online" transform="translate(-1467.333 -95.333)" class="st0">
	<g id="Path_262" transform="translate(1549.958 -32.5)">
		<path class="st1" d="M290.9,224.5h-0.9h-44.5h-0.9l-0.4-0.8l-22.2-38.5l-0.4-0.8l0.4-0.8l22.2-38.5l0.4-0.8h0.9h44.5h0.9l0.4,0.8
			l22.2,38.5l0.4,0.8l-0.4,0.8l-22.2,38.5L290.9,224.5z"/>
		<path class="st2" d="M245.6,146l-22.2,38.5l22.2,38.5h44.5l22.2-38.5L290.1,146H245.6 M245.6,143h44.5c1.1,0,2.1,0.6,2.6,1.5
			l22.2,38.5c0.5,0.9,0.5,2.1,0,3l-22.2,38.5c-0.5,0.9-1.5,1.5-2.6,1.5h-44.5c-1.1,0-2.1-0.6-2.6-1.5L220.8,186
			c-0.5-0.9-0.5-2.1,0-3l22.2-38.5C243.5,143.6,244.5,143,245.6,143z"/>
	</g>
	<g id="Path_263" transform="translate(1476.958 61.5)">
		<path class="st3" d="M290.9,224.5h-0.9h-44.5h-0.9l-0.4-0.8l-22.2-38.5l-0.4-0.8l0.4-0.8l22.2-38.5l0.4-0.8h0.9h44.5h0.9l0.4,0.8
			l22.2,38.5l0.4,0.8l-0.4,0.8l-22.2,38.5L290.9,224.5z"/>
		<path class="st2" d="M245.6,146l-22.2,38.5l22.2,38.5h44.5l22.2-38.5L290.1,146H245.6 M245.6,143h44.5c1.1,0,2.1,0.6,2.6,1.5
			l22.2,38.5c0.5,0.9,0.5,2.1,0,3l-22.2,38.5c-0.5,0.9-1.5,1.5-2.6,1.5h-44.5c-1.1,0-2.1-0.6-2.6-1.5L220.8,186
			c-0.5-0.9-0.5-2.1,0-3l22.2-38.5C243.5,143.6,244.5,143,245.6,143z"/>
	</g>
	<g id="Path_264" transform="translate(1575.958 133.5)">
		<path class="st4" d="M290.9,224.5h-0.9h-44.5h-0.9l-0.4-0.8l-22.2-38.5l-0.4-0.8l0.4-0.8l22.2-38.5l0.4-0.8h0.9h44.5h0.9l0.4,0.8
			l22.2,38.5l0.4,0.8l-0.4,0.8l-22.2,38.5L290.9,224.5z"/>
		<path class="st2" d="M245.6,146l-22.2,38.5l22.2,38.5h44.5l22.2-38.5L290.1,146H245.6 M245.6,143h44.5c1.1,0,2.1,0.6,2.6,1.5
			l22.2,38.5c0.5,0.9,0.5,2.1,0,3l-22.2,38.5c-0.5,0.9-1.5,1.5-2.6,1.5h-44.5c-1.1,0-2.1-0.6-2.6-1.5L220.8,186
			c-0.5-0.9-0.5-2.1,0-3l22.2-38.5C243.5,143.6,244.5,143,245.6,143z"/>
	</g>
	<g id="Path_265" transform="translate(1551.958 270.5)">
		<path class="st5" d="M290.9,224.5h-0.9h-44.5h-0.9l-0.4-0.8l-22.2-38.5l-0.4-0.8l0.4-0.8l22.2-38.5l0.4-0.8h0.9h44.5h0.9l0.4,0.8
			l22.2,38.5l0.4,0.8l-0.4,0.8l-22.2,38.5L290.9,224.5z"/>
		<path class="st2" d="M245.6,146l-22.2,38.5l22.2,38.5h44.5l22.2-38.5L290.1,146H245.6 M245.6,143h44.5c1.1,0,2.1,0.6,2.6,1.5
			l22.2,38.5c0.5,0.9,0.5,2.1,0,3l-22.2,38.5c-0.5,0.9-1.5,1.5-2.6,1.5h-44.5c-1.1,0-2.1-0.6-2.6-1.5L220.8,186
			c-0.5-0.9-0.5-2.1,0-3l22.2-38.5C243.5,143.6,244.5,143,245.6,143z"/>
	</g>
	<g id="Path_266" transform="translate(1451.958 190.5)">
		<path class="st6" d="M290.9,224.5h-0.9h-44.5h-0.9l-0.4-0.8l-22.2-38.5l-0.4-0.8l0.4-0.8l22.2-38.5l0.4-0.8h0.9h44.5h0.9l0.4,0.8
			l22.2,38.5l0.4,0.8l-0.4,0.8l-22.2,38.5L290.9,224.5z"/>
		<path class="st2" d="M245.6,146l-22.2,38.5l22.2,38.5h44.5l22.2-38.5L290.1,146H245.6 M245.6,143h44.5c1.1,0,2.1,0.6,2.6,1.5
			l22.2,38.5c0.5,0.9,0.5,2.1,0,3l-22.2,38.5c-0.5,0.9-1.5,1.5-2.6,1.5h-44.5c-1.1,0-2.1-0.6-2.6-1.5L220.8,186
			c-0.5-0.9-0.5-2.1,0-3l22.2-38.5C243.5,143.6,244.5,143,245.6,143z"/>
	</g>
	<g id="Path_267" transform="translate(1383.958 -33.5)">
		<path class="st5" d="M290.9,224.5h-0.9h-44.5h-0.9l-0.4-0.8l-22.2-38.5l-0.4-0.8l0.4-0.8l22.2-38.5l0.4-0.8h0.9h44.5h0.9l0.4,0.8
			l22.2,38.5l0.4,0.8l-0.4,0.8l-22.2,38.5L290.9,224.5z"/>
		<path class="st2" d="M245.6,146l-22.2,38.5l22.2,38.5h44.5l22.2-38.5L290.1,146H245.6 M245.6,143h44.5c1.1,0,2.1,0.6,2.6,1.5
			l22.2,38.5c0.5,0.9,0.5,2.1,0,3l-22.2,38.5c-0.5,0.9-1.5,1.5-2.6,1.5h-44.5c-1.1,0-2.1-0.6-2.6-1.5L220.8,186
			c-0.5-0.9-0.5-2.1,0-3l22.2-38.5C243.5,143.6,244.5,143,245.6,143z"/>
	</g>
	<g id="_012-unlock" transform="translate(1826.078 294.333)">
		<g id="Group_190">
			<path id="Path_124" class="st7" d="M2.7,19.4h1.9v-6.6C4.6,5.7,10.3,0,17.3,0l0,0c7,0,12.7,5.7,12.8,12.8v0.1h-4.6v-0.1
				c0-2.2-0.9-4.3-2.4-5.8c-0.4-0.4-0.8-0.7-1.2-1c-1.4-0.9-3-1.4-4.6-1.4l0,0c-4.5,0-8.2,3.7-8.2,8.2v6.6H32c1.5,0,2.7,1.2,2.7,2.7
				v22c0,1.5-1.2,2.7-2.7,2.7H2.7c-1.5,0-2.7-1.2-2.7-2.7l0,0v-22C0,20.6,1.2,19.4,2.7,19.4C2.7,19.4,2.7,19.4,2.7,19.4z M14.6,38.4
				h5.4l-1-4.6c1.5-1,2-3,1-4.5s-3-2-4.5-1c-1.5,1-2,3-1,4.5c0.3,0.4,0.6,0.8,1,1L14.6,38.4z"/>
		</g>
	</g>
	<path id="Path_268" class="st8" d="M1948.7,152h-84.7"/>
	<path id="Path_269" class="st8" d="M1973.1,318h-82.8"/>
	<path id="Path_270" class="st9" d="M1944.7,124.5h-76l-17.3-27.7h-81l-38.7,53.7h-32.3"/>
	<g id="_006-shield" transform="translate(1792.914 122.448)">
		<g id="Group_196" transform="translate(0)">
			<g id="Group_195">
				<path id="Path_157" class="st7" d="M49.5,10.2c-8.3-2.3-16.2-5.7-23.7-10c-0.4-0.2-0.9-0.2-1.3,0c-7.4,4.4-15.4,7.8-23.7,10
					C0.4,10.3,0,10.8,0,11.4v12.7c-0.1,10,3.9,19.7,11.1,26.7c5.4,5.3,11.8,8.3,14.1,8.3c2.3,0,8.7-3,14.1-8.3
					c7.2-7,11.2-16.7,11.1-26.7V11.4C50.4,10.8,50,10.3,49.5,10.2z"/>
				<path id="Path_158" class="st7" d="M14.2,12.2c-0.3-0.6-1-1-1.6-0.7c-2.2,0.9-4.5,1.7-6.8,2.4c-0.5,0.2-0.9,0.6-0.9,1.2v4.8
					c0,0.7,0.6,1.2,1.3,1.2c0.7,0,1.2-0.6,1.2-1.2V16c2-0.7,4.1-1.4,6.1-2.2C14.1,13.6,14.4,12.9,14.2,12.2z"/>
				<path id="Path_159" class="st7" d="M16.5,12.4c0.2,0,0.3,0,0.5-0.1l0,0c0.6-0.3,0.9-1,0.6-1.7c-0.3-0.6-1-0.9-1.6-0.6l0,0
					c-0.6,0.3-0.9,1-0.6,1.6c0,0,0,0,0,0C15.6,12.2,16.1,12.4,16.5,12.4z"/>
				<path id="Path_160" class="st7" d="M40,40.1c-0.6-0.4-1.3-0.2-1.7,0.3c0,0,0,0,0,0c-1,1.6-2.2,3.1-3.6,4.5
					c-1.1,1.1-2.3,2.2-3.6,3.2c-0.5,0.4-0.6,1.2-0.2,1.7c0.2,0.3,0.6,0.5,1,0.5c0.3,0,0.5-0.1,0.8-0.3c1.4-1,2.7-2.2,3.8-3.4
					c1.4-1.5,2.7-3.1,3.9-4.8C40.7,41.2,40.6,40.5,40,40.1C40,40.1,40,40.1,40,40.1z"/>
				<path id="Path_161" class="st7" d="M28.3,50L28.3,50c-0.7,0.4-0.9,1.2-0.5,1.7c0.3,0.6,1.1,0.8,1.7,0.5c0,0,0,0,0,0l0.1,0
					c0.6-0.3,0.8-1.1,0.5-1.7C29.6,49.9,28.9,49.7,28.3,50z"/>
				<path id="Path_162" class="st7" d="M35.4,20.8c0.6-0.6,1.6-0.7,2.2-0.1c0.6,0.6,0.7,1.6,0.1,2.2c0,0-0.1,0.1-0.1,0.1L22.3,38.3
					c-0.6,0.6-1.6,0.6-2.2,0L12.8,31c-0.6-0.6-0.5-1.6,0.1-2.2c0.6-0.5,1.5-0.5,2.1,0l5.4,5.4c0.2,0.2,0.5,0.4,0.9,0.4
					c0.3,0,0.6-0.1,0.9-0.4L35.4,20.8z"/>
			</g>
		</g>
	</g>
	<g id="_005-shield" transform="translate(1795.96 126.001)">
		<g id="Group_194" transform="translate(0)">
			<g id="Group_193">
				<path id="Path_151" class="st1" d="M43.5,9c-7.3-2-14.3-5-20.8-8.8c-0.3-0.2-0.8-0.2-1.1,0C15.1,4,8.1,7,0.8,9
					C0.3,9.1,0,9.5,0,10v11.2C-0.1,30,3.4,38.5,9.8,44.7c4.8,4.7,10.4,7.3,12.4,7.3s7.6-2.6,12.4-7.3c6.3-6.2,9.9-14.7,9.8-23.5V10
					C44.3,9.5,44,9.1,43.5,9z M42.2,21.2c0.1,8.3-3.2,16.2-9.1,21.9c-4.7,4.6-9.8,6.7-10.9,6.7s-6.2-2.1-10.9-6.7
					c-5.9-5.7-9.2-13.7-9.1-21.9V10.9c7-2,13.7-4.8,20-8.5c6.3,3.6,13,6.5,20,8.5V21.2z"/>
				<path id="Path_152" class="st1" d="M12.5,10.7c-0.2-0.6-0.9-0.8-1.4-0.6c0,0,0,0,0,0c-2,0.8-4,1.5-6,2.1c-0.5,0.1-0.8,0.6-0.8,1
					v4.2c0,0.6,0.5,1.1,1.1,1.1s1.1-0.5,1.1-1.1v-3.4c1.8-0.6,3.6-1.2,5.3-1.9C12.4,11.9,12.7,11.3,12.5,10.7
					C12.5,10.7,12.5,10.7,12.5,10.7z"/>
				<path id="Path_153" class="st1" d="M14.6,11c0.2,0,0.3,0,0.4-0.1l0,0c0.6-0.2,0.8-0.9,0.6-1.4c-0.2-0.6-0.9-0.8-1.4-0.6
					c0,0-0.1,0-0.1,0l0,0c-0.6,0.2-0.8,0.9-0.6,1.4C13.7,10.7,14.1,11,14.6,11z"/>
				<path id="Path_154" class="st1" d="M35.2,35.3c-0.5-0.3-1.2-0.2-1.5,0.3c-0.9,1.4-2,2.7-3.1,3.9c-1,1-2,1.9-3.1,2.8
					c-0.5,0.4-0.6,1-0.2,1.5c0.4,0.5,1,0.6,1.5,0.2c0,0,0,0,0,0c1.2-0.9,2.3-1.9,3.4-3c1.3-1.3,2.4-2.7,3.4-4.2
					C35.9,36.3,35.7,35.6,35.2,35.3z"/>
				<path id="Path_155" class="st1" d="M24.9,44L24.9,44c-0.6,0.3-0.8,1-0.5,1.5c0.3,0.5,1,0.7,1.5,0.4l0.1,0c0.5-0.3,0.7-1,0.4-1.5
					C26.1,43.9,25.5,43.7,24.9,44C24.9,44,24.9,44,24.9,44L24.9,44z"/>
				<path id="Path_156" class="st1" d="M14.7,23.8c-1.4-1.4-3.7-1.3-5,0.1c-1.3,1.4-1.3,3.6,0,5l6.5,6.5c1.4,1.4,3.6,1.4,5,0
					l13.5-13.5c1.4-1.4,1.3-3.7-0.1-5c-1.4-1.3-3.6-1.3-5,0l-11,11L14.7,23.8z M31.2,18.3c0.5-0.5,1.4-0.5,1.9,0
					c0.5,0.5,0.5,1.4,0,1.9c0,0,0,0,0,0L19.6,33.7c-0.5,0.5-1.4,0.5-1.9,0l-6.5-6.5c-0.5-0.5-0.5-1.4,0-1.9c0.5-0.5,1.4-0.5,1.9,0
					l4.7,4.7c0.4,0.4,1.1,0.4,1.5,0L31.2,18.3z"/>
			</g>
		</g>
	</g>
	<g id="_010-wifi" transform="translate(1624.376 129.157)">
		<path id="Path_215" class="st7" d="M27,38c-2.6,0-4.8,2.1-4.8,4.8c0,2.6,2.1,4.8,4.8,4.8c2.6,0,4.8-2.1,4.8-4.8l0,0
			C31.8,40.1,29.7,38,27,38z"/>
		<path id="Path_216" class="st7" d="M27,0C17.4,0,8.1,3.2,0.6,9.2c-0.7,0.5-0.8,1.5-0.3,2.2l2.2,2.8c0.5,0.7,1.5,0.8,2.2,0.2
			c0,0,0,0,0,0C17.9,3.9,36.5,3.6,50,13.7c0.7,0.5,1.7,0.4,2.2-0.3l1.6-2c0.5-0.7,0.4-1.7-0.3-2.2C46,3.2,36.6,0,27,0z"/>
		<path id="Path_217" class="st7" d="M27,12.7c-6.8,0-13.4,2.3-18.7,6.5c-0.7,0.5-0.8,1.5-0.2,2.2l2.2,2.8c0.6,0.7,1.6,0.8,2.2,0.2
			c0,0,0,0,0,0c8.6-6.9,20.8-7.2,29.7-0.7c0.7,0.5,1.6,0.4,2.2-0.3l1.6-2c0.5-0.7,0.4-1.7-0.3-2.2C40.4,14.9,33.8,12.6,27,12.7
			L27,12.7z"/>
		<path id="Path_218" class="st7" d="M16.2,29.1c-0.6,0.6-0.7,1.5-0.2,2.2l2.2,2.8c0.5,0.7,1.5,0.8,2.2,0.3c0,0,0,0,0,0
			c4-3.3,9.8-3.6,14.1-0.6c0.7,0.4,1.6,0.3,2.1-0.4l1.6-2c0.5-0.7,0.4-1.6-0.2-2.2C31.5,24.2,22.6,24.2,16.2,29.1L16.2,29.1z"/>
	</g>
	<g id="Path_271" transform="translate(1359.958 99.5)">
		<path class="st4" d="M290.9,224.5h-0.9h-44.5h-0.9l-0.4-0.8l-22.2-38.5l-0.4-0.8l0.4-0.8l22.2-38.5l0.4-0.8h0.9h44.5h0.9l0.4,0.8
			l22.2,38.5l0.4,0.8l-0.4,0.8l-22.2,38.5L290.9,224.5z"/>
		<path class="st2" d="M245.6,146l-22.2,38.5l22.2,38.5h44.5l22.2-38.5L290.1,146H245.6 M245.6,143h44.5c1.1,0,2.1,0.6,2.6,1.5
			l22.2,38.5c0.5,0.9,0.5,2.1,0,3l-22.2,38.5c-0.5,0.9-1.5,1.5-2.6,1.5h-44.5c-1.1,0-2.1-0.6-2.6-1.5L220.8,186
			c-0.5-0.9-0.5-2.1,0-3l22.2-38.5C243.5,143.6,244.5,143,245.6,143z"/>
	</g>
	<g id="headphones" transform="translate(1692.079 349.605)">
		<g id="Group_208">
			<path id="Path_228" class="st7" d="M27.7,0C12.3,0.1-0.1,12.6,0,27.9C0,32.5,1.2,37,3.4,41v-7.3c0-1.3,0.5-2.6,1.3-3.7
				c-0.1-0.7-0.1-1.5-0.1-2.2C4.6,15,14.9,4.7,27.7,4.6c12.8,0,23.1,10.5,23.1,23.3c0,0.8,0,1.6-0.1,2.4c0.7,1,1.1,2.2,1.1,3.5v7.7
				C59.3,28,54.5,11.1,41.2,3.6C37,1.2,32.4,0,27.7,0L27.7,0z"/>
			<path id="Path_229" class="st7" d="M5.1,32.5c-0.1,0.4-0.2,0.8-0.2,1.2v10.4c0,3.2,3.8,5.8,8.5,5.8H17v-22h-3.6
				C9.3,27.9,5.9,29.9,5.1,32.5z"/>
			<path id="Path_230" class="st7" d="M50.2,44.1V33.7c0-0.2,0-0.5-0.1-0.7c-0.5-2.9-4.1-5.1-8.4-5.1h-3.6v22h3.6
				C46.4,49.9,50.2,47.3,50.2,44.1z"/>
		</g>
	</g>
	<path id="gamepad" class="st7" d="M1600.5,291.6c0.3-6.2,2-13.8,4.6-18.4c6-10.7,13-4.6,22.1-3.8h0.8c9.1-0.8,16.1-6.9,22.1,3.8
		c2.5,4.5,4.3,12.2,4.6,18.4c0.7,15-7.8,10.9-15.8,3.4c-5-4.7-17.7-4.7-22.7,0C1608.3,302.6,1599.8,306.6,1600.5,291.6z
		 M1637.1,283.3h1v1c0,1.5,1.2,2.8,2.8,2.8c1.5,0,2.8-1.2,2.8-2.8v-1h1c1.5,0,2.8-1.2,2.8-2.8c0-1.5-1.2-2.8-2.8-2.8c0,0,0,0,0,0h-1
		v-1c0-1.5-1.2-2.8-2.8-2.8c-1.5,0-2.8,1.2-2.8,2.8v1h-1c-1.5,0-2.8,1.3-2.8,2.8C1634.3,282.1,1635.6,283.3,1637.1,283.3
		L1637.1,283.3z M1620.3,283c1.3,0,2.4-1,2.4-2.4c0,0,0-0.1,0-0.1c0-1.4-1.1-2.4-2.4-2.4s-2.4,1.1-2.4,2.4S1619,283,1620.3,283
		C1620.3,283,1620.3,283,1620.3,283z M1615.3,288c1.4,0,2.4-1.1,2.4-2.4s-1.1-2.4-2.4-2.4s-2.4,1.1-2.4,2.4l0,0
		C1612.8,286.9,1613.9,288,1615.3,288C1615.3,288,1615.3,288,1615.3,288L1615.3,288z M1615.3,278c1.3,0,2.4-1.1,2.4-2.4c0,0,0,0,0,0
		c0-1.3-1.1-2.4-2.4-2.4c-1.4,0-2.4,1.1-2.4,2.4C1612.8,276.9,1613.9,277.9,1615.3,278z M1610.3,283c1.3,0,2.4-1,2.4-2.4
		c0,0,0-0.1,0-0.1c0-1.4-1.1-2.4-2.4-2.4s-2.4,1.1-2.4,2.4S1608.9,283,1610.3,283C1610.3,283,1610.3,283,1610.3,283z"/>
	<g id="Path_272" transform="translate(1324.958 239.5)">
		<path class="st1" d="M290.9,224.5h-0.9h-44.5h-0.9l-0.4-0.8l-22.2-38.5l-0.4-0.8l0.4-0.8l22.2-38.5l0.4-0.8h0.9h44.5h0.9l0.4,0.8
			l22.2,38.5l0.4,0.8l-0.4,0.8l-22.2,38.5L290.9,224.5z"/>
		<path class="st2" d="M245.6,146l-22.2,38.5l22.2,38.5h44.5l22.2-38.5L290.1,146H245.6 M245.6,143h44.5c1.1,0,2.1,0.6,2.6,1.5
			l22.2,38.5c0.5,0.9,0.5,2.1,0,3l-22.2,38.5c-0.5,0.9-1.5,1.5-2.6,1.5h-44.5c-1.1,0-2.1-0.6-2.6-1.5L220.8,186
			c-0.5-0.9-0.5-2.1,0-3l22.2-38.5C243.5,143.6,244.5,143,245.6,143z"/>
	</g>
	<g id="_002-phone-1" transform="translate(1570.039 402.625)">
		<g id="Group_210" transform="translate(22.375 11.934)">
			<g id="Group_209">
				<path id="Path_232" class="st7" d="M1.5,0C0.7,0,0,0.7,0,1.5C0.1,2.3,0.7,3,1.5,3c3.3,0,6,2.7,6,6c0,0.8,0.7,1.5,1.5,1.5
					c0.8,0,1.4-0.7,1.5-1.5C10.4,4,6.4,0,1.5,0z"/>
			</g>
		</g>
		<g id="Group_212" transform="translate(22.375 5.967)">
			<g id="Group_211">
				<path id="Path_233" class="st7" d="M1.5,0C0.7,0,0,0.7,0,1.5C0.1,2.3,0.7,3,1.5,3c6.6,0,11.9,5.3,11.9,11.9
					c0,0.8,0.7,1.5,1.5,1.5c0.8,0,1.4-0.7,1.5-1.5C16.4,6.7,9.7,0,1.5,0z"/>
			</g>
		</g>
		<g id="Group_214" transform="translate(22.375)">
			<g id="Group_213">
				<path id="Path_234" class="st7" d="M1.5,0C0.7,0,0,0.7,0,1.5C0.1,2.3,0.7,3,1.5,3c9.9,0,17.9,8,17.9,17.9c0,0.8,0.7,1.5,1.5,1.5
					c0.8,0,1.4-0.7,1.5-1.5C22.4,9.4,13,0,1.5,0z"/>
			</g>
		</g>
		<g id="Group_216" transform="translate(0 2.983)">
			<g id="Group_215">
				<path id="Path_235" class="st7" d="M40.3,29.8c-4.2,0-8.4-0.9-12.3-2.8c-0.4-0.2-0.8-0.2-1.1-0.1c-0.4,0.1-0.7,0.4-0.9,0.8
					l-2.3,4.9c-6.1-3.4-11.1-8.4-14.5-14.5l4.9-2.4c0.7-0.4,1.1-1.2,0.7-2c0,0,0,0,0,0c-1.9-3.8-2.8-8-2.8-12.3
					c0-0.8-0.7-1.5-1.5-1.5h-9C0.7,0,0,0.7,0,1.5c0,0,0,0,0,0c0,22.2,18,40.3,40.3,40.3c0.8,0,1.5-0.7,1.5-1.5v-9
					C41.8,30.5,41.1,29.8,40.3,29.8z"/>
			</g>
		</g>
	</g>
	<g id="_004-cloud-computing" transform="translate(1722.907 215.897)">
		<g id="Group_217">
			<path id="Path_236" class="st7" d="M34.4,33.2c5.9-0.5,10.4-5.4,10.4-11.4c0-5.1-3.4-9.7-8.3-11.1C35.4,4.5,29.9,0,23.6,0
				C19,0,14.7,2.5,12.4,6.5c-0.4-0.1-0.9-0.1-1.4-0.1c-3.9,0-7.1,3.2-7.1,7.1c0,0.5,0.1,1,0.2,1.4c-2.5,1.9-4.1,4.8-4.1,8
				c0,5.3,4.3,10,9.3,10.3L34.4,33.2C34.3,33.2,34.3,33.2,34.4,33.2z"/>
			<path id="Path_237" class="st7" d="M22.4,37.4c-0.7,0-1.2,0.6-1.2,1.2c0,0,0,0,0,0v14.6c-2.3,0.7-3.5,3.1-2.8,5.4
				c0.5,1.8,2.1,3,4,3h0.1c2.4,0,4.3-1.9,4.3-4.3c0-1.9-1.2-3.5-3-4.1V38.7C23.6,38,23.1,37.4,22.4,37.4
				C22.4,37.4,22.4,37.4,22.4,37.4z M23.7,56.1c0.7,0.7,0.7,1.9-0.1,2.5c-0.3,0.3-0.8,0.5-1.2,0.5h-0.1c-1,0-1.8-0.8-1.8-1.8
				s0.8-1.8,1.8-1.8h0.1C22.9,55.6,23.4,55.8,23.7,56.1L23.7,56.1z"/>
			<path id="Path_238" class="st7" d="M14.4,38.7v7c0,1.2-1,2.2-2.2,2.2H8.5c-0.7-2.3-3.1-3.6-5.4-2.9c-2.3,0.7-3.6,3.1-2.9,5.4
				c0.7,2.3,3.1,3.6,5.4,2.9c1.4-0.4,2.5-1.5,2.9-2.9h3.7c2.6,0,4.7-2.1,4.7-4.7v-7c0-0.7-0.6-1.2-1.2-1.2
				C14.9,37.4,14.4,38,14.4,38.7L14.4,38.7z M4.4,50.9c-1,0-1.8-0.8-1.8-1.8c0-1,0.8-1.8,1.8-1.8s1.8,0.8,1.8,1.8l0,0
				C6.2,50.1,5.4,50.9,4.4,50.9C4.4,50.9,4.4,50.9,4.4,50.9L4.4,50.9z"/>
			<path id="Path_239" class="st7" d="M32.6,50.3h3.7c0.7,2.3,3.1,3.6,5.4,2.9c2.3-0.7,3.6-3.1,2.9-5.4s-3.1-3.6-5.4-2.9
				c-1.4,0.4-2.5,1.5-2.9,2.9h-3.7c-1.2,0-2.2-1-2.2-2.2v-7c0-0.7-0.6-1.2-1.2-1.2c-0.7,0-1.2,0.6-1.2,1.2v7
				C27.9,48.2,30,50.3,32.6,50.3z M40.3,47.3c1,0,1.8,0.8,1.8,1.8s-0.8,1.8-1.8,1.8c-1,0-1.8-0.8-1.8-1.8v0
				C38.5,48.1,39.3,47.3,40.3,47.3L40.3,47.3z"/>
		</g>
	</g>
	<g id="zoom-in" transform="translate(1796.516 424.412) rotate(9)">
		<path id="Path_240" class="st7" d="M42.3,35.1l-7.5,7.1l11.7,9.5c0.7,0.5,1.5,0.8,2.3,0.8c1,0,1.9-0.4,2.6-1.1
			c1.3-1.3,1.4-3.5,0.2-4.9L42.3,35.1z"/>
		<path id="Path_241" class="st7" d="M35.8,28.3c-0.9,1.5-2,3-3.3,4.2c-1.3,1.3-2.7,2.4-4.2,3.3c0.4,1,1,1.8,1.8,2.4l2.4,1.9
			l7.9-7.5l-2.1-2.6C37.6,29.3,36.8,28.7,35.8,28.3z"/>
		<path id="Path_242" class="st7" d="M0,17.8c0,9.8,8,17.8,17.8,17.8c4.7,0,9.2-1.9,12.6-5.2c7-7,7-18.2,0-25.2s-18.2-7-25.2,0
			C1.9,8.5,0,13.1,0,17.8z"/>
	</g>
	<g id="Path_273" transform="translate(1266.958 19.5)">
		<path class="st6" d="M290.9,224.5h-0.9h-44.5h-0.9l-0.4-0.8l-22.2-38.5l-0.4-0.8l0.4-0.8l22.2-38.5l0.4-0.8h0.9h44.5h0.9l0.4,0.8
			l22.2,38.5l0.4,0.8l-0.4,0.8l-22.2,38.5L290.9,224.5z"/>
		<path class="st2" d="M245.6,146l-22.2,38.5l22.2,38.5h44.5l22.2-38.5L290.1,146H245.6 M245.6,143h44.5c1.1,0,2.1,0.6,2.6,1.5
			l22.2,38.5c0.5,0.9,0.5,2.1,0,3l-22.2,38.5c-0.5,0.9-1.5,1.5-2.6,1.5h-44.5c-1.1,0-2.1-0.6-2.6-1.5L220.8,186
			c-0.5-0.9-0.5-2.1,0-3l22.2-38.5C243.5,143.6,244.5,143,245.6,143z"/>
	</g>
	<g id="Path_274" transform="translate(1246.958 167.5)">
		<path class="st3" d="M290.9,224.5h-0.9h-44.5h-0.9l-0.4-0.8l-22.2-38.5l-0.4-0.8l0.4-0.8l22.2-38.5l0.4-0.8h0.9h44.5h0.9l0.4,0.8
			l22.2,38.5l0.4,0.8l-0.4,0.8l-22.2,38.5L290.9,224.5z"/>
		<path class="st2" d="M245.6,146l-22.2,38.5l22.2,38.5h44.5l22.2-38.5L290.1,146H245.6 M245.6,143h44.5c1.1,0,2.1,0.6,2.6,1.5
			l22.2,38.5c0.5,0.9,0.5,2.1,0,3l-22.2,38.5c-0.5,0.9-1.5,1.5-2.6,1.5h-44.5c-1.1,0-2.1-0.6-2.6-1.5L220.8,186
			c-0.5-0.9-0.5-2.1,0-3l22.2-38.5C243.5,143.6,244.5,143,245.6,143z"/>
	</g>
	<g id="_004-mail" transform="translate(1487.913 332.125)">
		<g id="Group_219">
			<g id="Group_218">
				<path id="Path_245" class="st7" d="M1.1,3.2c7.3,6.2,20,17,23.8,20.4c0.8,0.9,2.2,0.9,3.1,0.1c0,0,0,0,0.1-0.1
					c3.8-3.4,16.5-14.2,23.8-20.4c0.5-0.4,0.5-1.1,0.2-1.5C51.2,0.6,49.9,0,48.6,0H4.4C3.1,0,1.8,0.6,1,1.7C0.6,2.2,0.6,2.8,1.1,3.2
					z"/>
				<path id="Path_246" class="st7" d="M52.4,6.6c-0.4-0.2-0.8-0.1-1.2,0.2c-4.8,4-11,9.4-15.8,13.4c-0.5,0.4-0.5,1.1-0.1,1.6
					c0,0.1,0.1,0.1,0.2,0.1c4.4,3.5,11,8.4,15.8,11.8c0.5,0.4,1.2,0.3,1.5-0.2c0.1-0.2,0.2-0.4,0.2-0.7V7.6
					C53,7.1,52.8,6.7,52.4,6.6z"/>
				<path id="Path_247" class="st7" d="M1.7,33.7c4.8-3.4,11.4-8.3,15.8-11.8c0.5-0.4,0.6-1.1,0.2-1.5c0-0.1-0.1-0.1-0.1-0.2
					c-4.7-4.1-11-9.4-15.8-13.4C1.4,6.3,0.7,6.4,0.3,6.8C0.1,7,0,7.3,0,7.6v25.2c0,0.6,0.5,1.1,1.1,1.1C1.3,33.9,1.6,33.8,1.7,33.7
					L1.7,33.7z"/>
				<path id="Path_248" class="st7" d="M51.6,36.7c-4.6-3.3-13.1-9.5-18.2-13.6c-0.4-0.3-1-0.3-1.4,0c-1,0.9-1.8,1.6-2.4,2.1
					c-1.7,1.6-4.4,1.6-6.2,0C22.8,24.7,22,24,21,23.1c-0.4-0.4-1-0.4-1.4,0C14.5,27.2,6,33.4,1.4,36.7c-0.5,0.4-0.6,1-0.3,1.5
					c0,0,0.1,0.1,0.1,0.1c0.8,0.9,2,1.4,3.2,1.4h44.2c1.2,0,2.4-0.5,3.2-1.4c0.4-0.4,0.4-1.1,0-1.6C51.7,36.7,51.7,36.7,51.6,36.7
					L51.6,36.7z"/>
			</g>
		</g>
	</g>
	<g id="Network" transform="translate(1506.89 173.606)">
		<path id="Path_249" class="st7" d="M53.1,23.7c-2.8,0-5.2,2-5.6,4.8c0,0-0.1,0-0.1,0h-1.9c0,0,0,0,0,0c-0.2-3.6-1.6-7.1-4-9.8
			c0,0,0,0,0,0l3.8-3.8c0.1-0.1,0.2-0.2,0.2-0.3c1.8,1.1,4.2,0.5,5.3-1.3c1.1-1.8,0.5-4.2-1.3-5.3s-4.2-0.5-5.3,1.3
			c-0.8,1.2-0.8,2.8,0,4c-0.1,0-0.2,0.1-0.3,0.2l-3.8,3.8c0,0,0,0,0,0c-2.7-2.4-6.1-3.8-9.8-4c0,0,0,0,0,0V9.5c0,0,0-0.1,0-0.1
			c2.6-0.5,4.2-3,3.7-5.6c-0.5-2.6-3-4.2-5.6-3.7c-2.6,0.5-4.2,3-3.7,5.6c0.4,1.9,1.8,3.3,3.7,3.7c0,0,0,0.1,0,0.1v3.8c0,0,0,0,0,0
			c-3.6,0.2-7.1,1.6-9.8,4c0,0,0,0,0,0l-8.5-8.5C10.1,8.7,10,8.7,9.9,8.6c1.1-1.8,0.5-4.1-1.3-5.2S4.5,2.9,3.4,4.7S2.9,8.8,4.7,9.9
			c1.2,0.7,2.8,0.7,4,0c0,0.1,0.1,0.2,0.2,0.3l8.5,8.5c0,0,0,0,0,0c-2.4,2.7-3.8,6.1-4,9.8c0,0,0,0,0,0h-1.9c0,0-0.1,0-0.1,0
			c-0.5-3.1-3.5-5.2-6.6-4.7c-3.1,0.5-5.2,3.5-4.7,6.6s3.5,5.2,6.6,4.7c2.4-0.4,4.3-2.3,4.7-4.7c0,0,0.1,0,0.1,0h1.9c0,0,0,0,0,0
			c0.2,3.6,1.6,7,4,9.7c0,0.1,0.1,0.1,0.2,0.2c2.8,3.1,6.8,5,11,5.3c0,0,0,0,0,0v3.8c0,0,0,0.1,0,0.1c-2.6,0.5-4.2,3-3.7,5.6
			c0.5,2.6,3,4.2,5.6,3.7s4.2-3,3.7-5.6c-0.4-1.9-1.8-3.3-3.7-3.7c0,0,0-0.1,0-0.1v-3.8c0,0,0,0,0,0c3.6-0.2,7.1-1.6,9.8-4
			c0,0,0,0,0,0l3.8,3.8c0.1,0.1,0.2,0.2,0.3,0.2c-1.1,1.8-0.6,4.2,1.2,5.3c1.8,1.1,4.2,0.6,5.3-1.2c1.1-1.8,0.6-4.2-1.2-5.3
			c-1.2-0.8-2.8-0.8-4,0c0-0.1-0.1-0.2-0.2-0.3l-3.8-3.8l0,0l0-0.1c2.4-2.7,3.8-6.1,4-9.7c0,0,0,0,0,0h1.9c0,0,0.1,0,0.1,0
			c0.5,3.1,3.4,5.2,6.5,4.7c3.1-0.5,5.2-3.4,4.7-6.5C58.3,25.7,55.9,23.7,53.1,23.7L53.1,23.7z M47.5,9.5c1,0,1.9,0.9,1.9,1.9
			s-0.9,1.9-1.9,1.9c-1,0-1.9-0.9-1.9-1.9S46.4,9.5,47.5,9.5L47.5,9.5z M6.7,8.5c-1,0-1.9-0.9-1.9-1.9s0.9-1.9,1.9-1.9
			s1.9,0.9,1.9,1.9c0,0,0,0,0,0C8.6,7.7,7.7,8.5,6.7,8.5C6.7,8.6,6.6,8.6,6.7,8.5L6.7,8.5z M5.7,33.2c-2.1,0-3.8-1.7-3.8-3.8
			s1.7-3.8,3.8-3.8s3.8,1.7,3.8,3.8l0,0C9.5,31.5,7.8,33.2,5.7,33.2C5.7,33.2,5.7,33.2,5.7,33.2L5.7,33.2z M47.5,45.6
			c1,0,1.9,0.9,1.9,1.9s-0.9,1.9-1.9,1.9c-1,0-1.9-0.9-1.9-1.9S46.4,45.6,47.5,45.6L47.5,45.6z M26.6,4.8c0-1.6,1.3-2.8,2.8-2.8
			s2.8,1.3,2.8,2.8S31,7.6,29.4,7.6C27.9,7.6,26.6,6.3,26.6,4.8C26.6,4.8,26.6,4.8,26.6,4.8L26.6,4.8z M32.3,54.1
			c0,1.6-1.3,2.8-2.8,2.8s-2.8-1.3-2.8-2.8s1.3-2.8,2.8-2.8l0,0C31,51.3,32.3,52.5,32.3,54.1C32.3,54.1,32.3,54.1,32.3,54.1
			L32.3,54.1z M41.3,37.3c-0.9-3.6-3.5-6.7-6.9-8.2c1.2-1.2,1.8-2.8,1.7-4.4c0-3.7-2.9-6.7-6.6-6.7c-3.7,0-6.7,2.9-6.7,6.6
			c0,0.1,0,0.1,0,0.2c-0.1,1.7,0.6,3.3,1.7,4.4c-3.4,1.5-6,4.6-6.9,8.2c-4.4-6.5-2.6-15.4,3.9-19.7s15.4-2.6,19.7,3.9
			C44.5,26.3,44.5,32.5,41.3,37.3L41.3,37.3z M53.1,33.2c-2.1,0-3.8-1.7-3.8-3.8c0-2.1,1.7-3.8,3.8-3.8c2.1,0,3.8,1.7,3.8,3.8
			C56.9,31.5,55.3,33.2,53.1,33.2C53.2,33.2,53.1,33.2,53.1,33.2z"/>
		<path id="Path_250" class="st7" d="M11.7,45.8l-3.8,3.8c-0.1,0.1-0.2,0.2-0.2,0.3c-1.8-1.1-4.2-0.6-5.3,1.2
			c-1.1,1.8-0.6,4.2,1.2,5.3s4.2,0.6,5.3-1.2c0.8-1.2,0.8-2.8,0-4c0.1,0,0.2-0.1,0.3-0.2l3.8-3.8c0.4-0.4,0.3-1-0.1-1.4
			C12.6,45.5,12,45.5,11.7,45.8L11.7,45.8z M5.7,55c-1,0-1.9-0.9-1.9-1.9s0.9-1.9,1.9-1.9s1.9,0.9,1.9,1.9l0,0
			C7.6,54.2,6.8,55,5.7,55z"/>
		<path id="Path_251" class="st7" d="M15.5,42l-1.9,1.9c-0.4,0.4-0.4,1,0,1.3c0.4,0.4,1,0.4,1.3,0l0,0l1.9-1.9c0.4-0.4,0.3-1,0-1.3
			C16.4,41.7,15.8,41.7,15.5,42L15.5,42z"/>
	</g>
	<path id="Path_275" class="st9" d="M1946.4,210.5h-67.5l-30,35.5h-58"/>
	<path id="Path_276" class="st8" d="M1954.4,455h-87.5"/>
	<path id="Path_277" class="st9" d="M1956.4,432.5h-74.5l-25-39h-74.5l-29.5,52h-63.5l-52.6-93.4h-75.8"/>
	<path id="Path_278" class="st9" d="M1947.4,481h-76.5l-19,32.5h-145.5l-49-90h-18.3"/>
	<path id="Path_279" class="st9" d="M1953.4,261.7h-149l-30.7,53.3h-60.7l-18.7-31h-21"/>
	<path id="Path_280" class="st9" d="M1951.9,182.5h-77.5l-19,27h-73l-25.5-44.5h-46l-23,39.5h-107"/>
	<path id="Path_281" class="st9" d="M1959.1,401h-69l-17.3-26.3h-106.3"/>
</g>
</svg>
