<svg version="1.2" baseProfile="tiny" xmlns="http://www.w3.org/2000/svg" viewBox="0 0 200 200"><switch><g><linearGradient id="a" gradientUnits="userSpaceOnUse" x1="100" y1="34.706" x2="100" y2="230.869"><stop offset="0" stop-color="#f6d201"/><stop offset=".177" stop-color="#f6cc02"/><stop offset=".407" stop-color="#f6bc03"/><stop offset=".667" stop-color="#f6a106"/><stop offset=".946" stop-color="#f67c0a"/><stop offset="1" stop-color="#f6740b"/></linearGradient><path fill="url(#a)" d="M186.2 160.7H13.8c-3 0-5.5-2.5-5.5-5.5V44.8c0-3 2.5-5.5 5.5-5.5h172.5c3 0 5.5 2.5 5.5 5.5v110.3c-.1 3.1-2.5 5.6-5.6 5.6z"/><path fill="#FFF" d="M180.1 155H19.9c-2.8 0-5.1-2.3-5.1-5.1V48.8c0-2.8 2.3-5.1 5.1-5.1h160.2c2.8 0 5.1 2.3 5.1 5.1v101.1c0 2.9-2.3 5.1-5.1 5.1z"/><linearGradient id="b" gradientUnits="userSpaceOnUse" x1="100" y1="16.372" x2="100" y2="182.814"><stop offset="0" stop-color="#f7af04"/><stop offset="1" stop-color="#f42014"/></linearGradient><path fill="url(#b)" d="M191.7 56.9H8.3V44.8c0-3 2.5-5.5 5.5-5.5h172.5c3 0 5.5 2.5 5.5 5.5v12.1z"/><circle fill="#FFF" cx="19.9" cy="48.1" r="3.1"/><circle fill="#FFF" cx="29.4" cy="48.1" r="3.1"/><circle fill="#FFF" cx="38.9" cy="48.1" r="3.1"/><path d="M20.5 61.7h76.2V101H20.5zm79.7 0h79.3V101h-79.3zm0 42.9h79.3v37h-79.3zm-79.7 0h76.2v4.7H20.5zm0 8.1h76.2v4.7H20.5zm0 8.1h76.2v4.7H20.5zm0 8.1h76.2v4.7H20.5zm0 8.1h76.2v4.7H20.5zm163.2 18H16.3c-.8 0-1.5-.7-1.5-1.5v-5.4c0-.8.7-1.5 1.5-1.5h167.3c.8 0 1.5.7 1.5 1.5v5.4c.1.9-.6 1.5-1.4 1.5z" fill="#F1F2F2"/><path fill="#FFF" d="M180.3 152.6H28.9c-.8 0-1.5-.7-1.5-1.5v-.5c0-.8.7-1.5 1.5-1.5h151.4c.8 0 1.5.7 1.5 1.5v.5c-.1.8-.7 1.5-1.5 1.5z"/><path fill="#1A9EFE" d="M99.2 151.9H29.3c-.5 0-.9-.4-.9-.9v-.3c0-.5.4-.9.9-.9h69.8c.5 0 .9.4.9.9v.3c.1.5-.3.9-.8.9zm-79.7-4.1v5.6l4.9-2.8zm109.3-44.1c0 6.5-2.2 12.6-5.9 17.4-5.3 6.9-13.6 11.4-22.9 11.4s-17.7-4.5-22.9-11.4c-3.7-4.8-5.9-10.9-5.9-17.4 0-15.9 12.9-28.8 28.8-28.8s28.8 12.9 28.8 28.8z"/><path fill="#FFF" d="M94.7 92.8v22.9l16-11.4z"/></g></switch></svg>