<svg xmlns="http://www.w3.org/2000/svg" viewBox="0 0 1200 300"><linearGradient id="a" gradientUnits="userSpaceOnUse" x1="120.227" y1="96.3" x2="120.227" y2="207.725" gradientTransform="matrix(1 0 0 -1 0 302)"><stop offset="0" stop-color="#82b3ff"/><stop offset="1" stop-color="#662d91"/></linearGradient><path d="M113.6 98.1c3-5.1 10.4-5.1 13.3 0l27.7 48 27.7 48c3 5.1-.7 11.6-6.7 11.6H64.8c-5.9 0-9.6-6.4-6.7-11.6l27.7-48 27.8-48z" fill="url(#a)"/><linearGradient id="b" gradientUnits="userSpaceOnUse" x1="169.421" y1="110.653" x2="169.421" y2="169.191" gradientTransform="matrix(1 0 0 -1 0 302)"><stop offset="0" stop-color="#662d91"/><stop offset="1" stop-color="#82b3ff"/></linearGradient><path d="M165.2 135.2c1.9-3.2 6.5-3.2 8.4 0l14.1 24.4 14.1 24.4c1.9 3.2-.5 7.2-4.2 7.2h-56.4c-3.7 0-6-4-4.2-7.2l14.1-24.4 14.1-24.4z" fill="url(#b)"/><linearGradient id="c" gradientUnits="userSpaceOnUse" x1="68.668" y1="170.275" x2="106.223" y2="170.275" gradientTransform="matrix(1 0 0 -1 0 302)"><stop offset="0" stop-color="#662d91"/><stop offset="1" stop-color="#82b3ff"/></linearGradient><path d="M84 116.9c1.5-2.6 5.3-2.6 6.9 0l7.4 12.8 7.4 12.8c1.5 2.6-.4 6-3.4 6H72.6c-3.1 0-5-3.3-3.4-6l7.4-12.8 7.4-12.8z" fill="url(#c)"/><path d="M246.5 167.5V126h-16.1v-7.3h41.2v7.3h-16.1v41.5h-9zm42.8.7c-3.6 0-6.7-.7-9.4-2.2-2.6-1.5-4.7-3.6-6.1-6.3-1.5-2.7-2.2-6-2.2-9.7s.7-7 2.2-9.7 3.5-4.8 6.1-6.3 5.8-2.2 9.4-2.2 6.7.7 9.4 2.2c2.7 1.5 4.7 3.6 6.2 6.3s2.2 5.9 2.2 9.7-.7 7-2.2 9.7-3.5 4.8-6.2 6.3-5.8 2.2-9.4 2.2zm0-6.6c2.7 0 4.9-1 6.5-2.9s2.4-4.8 2.4-8.7-.8-6.8-2.4-8.7-3.8-2.8-6.5-2.8-4.9.9-6.5 2.8c-1.6 1.9-2.4 4.8-2.4 8.7s.8 6.8 2.4 8.7 3.8 2.9 6.5 2.9zm26.9 20.9v-41.2c0-1.4 0-2.9-.1-4.4s-.2-2.9-.4-4.4h8.4l.8 7.3h-.8c.7-2.4 2.2-4.4 4.4-5.9s4.8-2.2 7.8-2.2c3.1 0 5.8.7 8.1 2.2 2.3 1.5 4.1 3.5 5.4 6.2s1.9 5.9 1.9 9.7-.6 7-1.9 9.8c-1.3 2.7-3.1 4.8-5.4 6.3s-5 2.2-8.1 2.2c-2.9 0-5.5-.7-7.7-2.1-2.2-1.4-3.7-3.3-4.4-5.8h.8v22.2l-8.8.1zm17.6-20.9c2.8 0 5-1 6.7-2.9s2.5-4.8 2.5-8.7-.8-6.8-2.5-8.7-3.9-2.8-6.7-2.8c-2.7 0-4.9.9-6.6 2.8-1.7 1.9-2.5 4.8-2.5 8.7s.8 6.8 2.5 8.7 3.9 2.9 6.6 2.9zm43.2 6.6c-3.6 0-6.8-.7-9.5-2.2s-4.8-3.6-6.3-6.3-2.2-6-2.2-9.8.8-7 2.3-9.7 3.6-4.7 6.3-6.2c2.7-1.4 5.8-2.1 9.4-2.1 2.3 0 4.6.4 6.8 1.1 2.2.7 4 1.7 5.4 3.1l-2.6 6c-1.2-1.2-2.6-2-4.2-2.6-1.5-.6-3.1-.9-4.5-.9-3.1 0-5.5 1-7.2 2.9s-2.6 4.8-2.6 8.5.9 6.5 2.6 8.5 4.1 3 7.2 3c1.4 0 2.9-.3 4.5-.8 1.5-.6 3-1.4 4.3-2.6l2.6 6c-1.4 1.3-3.2 2.4-5.4 3.1-2.4.7-4.6 1-6.9 1zm35.7 0c-3.6 0-6.7-.7-9.4-2.2-2.6-1.5-4.7-3.6-6.1-6.3-1.5-2.7-2.2-6-2.2-9.7s.7-7 2.2-9.7 3.5-4.8 6.1-6.3 5.8-2.2 9.4-2.2 6.7.7 9.4 2.2c2.7 1.5 4.7 3.6 6.2 6.3s2.2 5.9 2.2 9.7-.7 7-2.2 9.7-3.5 4.8-6.2 6.3-5.8 2.2-9.4 2.2zm0-6.6c2.7 0 4.9-1 6.5-2.9s2.4-4.8 2.4-8.7-.8-6.8-2.4-8.7-3.8-2.8-6.5-2.8-4.9.9-6.5 2.8c-1.6 1.9-2.4 4.8-2.4 8.7s.8 6.8 2.4 8.7c1.6 1.9 3.8 2.9 6.5 2.9zm27 5.9v-26.3c0-1.4 0-2.9-.1-4.4s-.2-2.9-.4-4.4h8.4l.7 6.9h-.8c1.1-2.4 2.7-4.3 4.9-5.6 2.2-1.3 4.7-2 7.6-2 4.1 0 7.2 1.2 9.3 3.5 2.1 2.3 3.1 5.9 3.1 10.8v21.4h-8.7v-21c0-2.8-.5-4.8-1.6-6.1-1.1-1.2-2.7-1.8-4.9-1.8-2.7 0-4.8.8-6.4 2.5s-2.4 3.9-2.4 6.7v19.8h-8.7zm58.4.7c-4.2 0-7.3-1.1-9.4-3.3s-3.2-5.4-3.2-9.8V139h-6.7v-6.5h6.7v-8.9l8.7-2.2v11.2h9.4v6.5h-9.4v15.6c0 2.4.5 4.1 1.4 5.1s2.2 1.5 3.8 1.5c.9 0 1.6-.1 2.3-.2s1.2-.3 1.8-.6v6.9c-.8.3-1.7.6-2.6.7-1 .1-1.9.1-2.8.1zm29.6 0c-5.9 0-10.5-1.6-13.8-4.9-3.3-3.2-5-7.7-5-13.3 0-3.6.7-6.8 2.1-9.6 1.4-2.7 3.4-4.9 6-6.4s5.6-2.3 9-2.3 6.2.7 8.5 2.1c2.3 1.4 4 3.4 5.2 6s1.8 5.6 1.8 9.1v2.3H516v-4.6h19.3l-1.2 1c0-3.2-.7-5.7-2-7.4-1.4-1.7-3.3-2.6-5.9-2.6-2.9 0-5.1 1-6.6 3s-2.3 4.9-2.3 8.5v.9c0 3.8.9 6.6 2.8 8.5 1.9 1.9 4.5 2.8 7.9 2.8 2 0 3.8-.3 5.6-.8 1.7-.5 3.4-1.4 5-2.6l2.6 5.8c-1.7 1.3-3.7 2.4-6 3.1-2.4 1.1-4.9 1.4-7.5 1.4zm22.8-.7v-26.3c0-1.4 0-2.9-.1-4.4s-.2-2.9-.4-4.4h8.4l.7 6.9h-.8c1.1-2.4 2.7-4.3 4.9-5.6s4.7-2 7.6-2c4.1 0 7.2 1.2 9.3 3.5s3.1 5.9 3.1 10.8v21.4h-8.7v-21c0-2.8-.5-4.8-1.6-6.1-1.1-1.2-2.7-1.8-4.9-1.8-2.7 0-4.8.8-6.4 2.5-1.6 1.7-2.4 3.9-2.4 6.7v19.8h-8.7zm58.5.7c-4.2 0-7.3-1.1-9.4-3.3-2.1-2.2-3.2-5.4-3.2-9.8V139h-6.7v-6.5h6.7v-8.9l8.7-2.2v11.2h9.4v6.5h-9.4v15.6c0 2.4.5 4.1 1.4 5.1s2.2 1.5 3.8 1.5c.9 0 1.6-.1 2.3-.2.6-.1 1.2-.3 1.8-.6v6.9c-.8.3-1.7.6-2.6.7-1 .1-1.9.1-2.8.1zm12.6-16.3V145h21.1v6.9h-21.1zm50.1 16.3c-5.9 0-10.5-1.6-13.8-4.9-3.3-3.2-5-7.7-5-13.3 0-3.6.7-6.8 2.1-9.6 1.4-2.7 3.4-4.9 6-6.4s5.6-2.3 9-2.3 6.2.7 8.5 2.1c2.3 1.4 4 3.4 5.2 6s1.8 5.6 1.8 9.1v2.3H660v-4.6h19.3l-1.2 1c0-3.2-.7-5.7-2-7.4-1.4-1.7-3.3-2.6-5.9-2.6-2.9 0-5.1 1-6.6 3s-2.3 4.9-2.3 8.5v.9c0 3.8.9 6.6 2.8 8.5s4.5 2.8 7.9 2.8c2 0 3.8-.3 5.6-.8 1.7-.5 3.4-1.4 5-2.6l2.6 5.8c-1.7 1.3-3.6 2.4-6 3.1-2.4 1.1-4.9 1.4-7.5 1.4zm22.8-.7v-26.3c0-1.4 0-2.9-.1-4.4s-.2-2.9-.4-4.4h8.4l.7 6.9h-.8c1.1-2.4 2.7-4.3 4.9-5.6s4.7-2 7.6-2c4.1 0 7.2 1.2 9.3 3.5s3.1 5.9 3.1 10.8v21.4h-8.7v-21c0-2.8-.5-4.8-1.6-6.1-1.1-1.2-2.7-1.8-4.9-1.8-2.7 0-4.8.8-6.4 2.5-1.6 1.7-2.4 3.9-2.4 6.7v19.8h-8.7zm58.5.7c-4.2 0-7.3-1.1-9.4-3.3-2.1-2.2-3.2-5.4-3.2-9.8V139h-6.7v-6.5h6.7v-8.9l8.7-2.2v11.2h9.4v6.5h-9.4v15.6c0 2.4.5 4.1 1.4 5.1s2.2 1.5 3.8 1.5c.9 0 1.6-.1 2.3-.2.6-.1 1.2-.3 1.8-.6v6.9c-.8.3-1.7.6-2.6.7-1 .1-1.9.1-2.8.1zm29.6 0c-5.9 0-10.5-1.6-13.8-4.9-3.3-3.2-5-7.7-5-13.3 0-3.6.7-6.8 2.1-9.6 1.4-2.7 3.4-4.9 6-6.4s5.6-2.3 9-2.3 6.2.7 8.5 2.1c2.3 1.4 4 3.4 5.2 6s1.8 5.6 1.8 9.1v2.3h-25.5v-4.6h19.3l-1.2 1c0-3.2-.7-5.7-2-7.4-1.4-1.7-3.3-2.6-5.9-2.6-2.9 0-5.1 1-6.6 3s-2.3 4.9-2.3 8.5v.9c0 3.8.9 6.6 2.8 8.5s4.5 2.8 7.9 2.8c2 0 3.8-.3 5.6-.8 1.7-.5 3.4-1.4 5-2.6l2.6 5.8c-1.7 1.3-3.6 2.4-6 3.1-2.5 1.1-4.9 1.4-7.5 1.4zm22.7-.7v-26.1c0-1.5 0-3-.1-4.5s-.2-3-.4-4.4h8.4l1 9.6h-1.4c.5-2.3 1.2-4.2 2.3-5.8 1.1-1.5 2.4-2.7 4-3.4s3.3-1.1 5.1-1.1c.8 0 1.5 0 2 .1s1 .2 1.5.4l-.1 7.6c-.9-.4-1.6-.6-2.3-.7-.6-.1-1.4-.1-2.3-.1-2 0-3.7.4-5 1.2-1.4.8-2.4 2-3 3.5-.7 1.5-1 3.2-1 5.1v18.6h-8.7zm46 .7c-4.2 0-7.3-1.1-9.4-3.3-2.1-2.2-3.2-5.4-3.2-9.8V139H832v-6.5h6.7v-8.9l8.7-2.2v11.2h9.4v6.5h-9.4v15.6c0 2.4.5 4.1 1.4 5.1s2.2 1.5 3.8 1.5c.9 0 1.6-.1 2.3-.2.6-.1 1.2-.3 1.8-.6v6.9c-.8.3-1.7.6-2.6.7-1 .1-1.9.1-2.8.1zm26.5 0c-3 0-5.7-.7-8-2.2s-4.1-3.5-5.4-6.3c-1.3-2.7-1.9-6-1.9-9.8s.6-7 1.9-9.7c1.3-2.7 3.1-4.8 5.4-6.2 2.3-1.5 5-2.2 8-2.2s5.6.7 7.8 2.2 3.7 3.4 4.5 5.9h-.8l.8-7.3h8.3c-.1 1.4-.3 2.9-.4 4.4-.1 1.5-.2 2.9-.2 4.4v26.3h-8.6l-.1-7.2h.8c-.7 2.4-2.2 4.3-4.5 5.8-2.2 1.2-4.7 1.9-7.6 1.9zm2.4-6.6c2.7 0 4.9-1 6.6-2.9 1.7-1.9 2.5-4.8 2.5-8.7s-.8-6.8-2.5-8.7-3.9-2.8-6.6-2.8-4.9.9-6.6 2.8c-1.7 1.9-2.5 4.8-2.5 8.7s.8 6.8 2.5 8.7c1.7 1.9 3.9 2.9 6.6 2.9zm28.3-35.6v-8.5h9.6v8.5h-9.6zm.5 41.5v-35h8.7v35H909zm19.8 0v-26.3c0-1.4 0-2.9-.1-4.4s-.2-2.9-.4-4.4h8.4l.7 6.9h-.8c1.1-2.4 2.7-4.3 4.9-5.6s4.7-2 7.6-2c4.1 0 7.2 1.2 9.3 3.5s3.1 5.9 3.1 10.8v21.4h-8.7v-21c0-2.8-.5-4.8-1.6-6.1-1.1-1.2-2.7-1.8-4.9-1.8-2.7 0-4.8.8-6.4 2.5-1.6 1.7-2.4 3.9-2.4 6.7v19.8h-8.7zm43.5 0v-26.3c0-1.4 0-2.9-.1-4.4s-.2-2.9-.4-4.4h8.4l.7 6.9h-.9c1-2.4 2.5-4.3 4.5-5.6s4.4-2 7.2-2 5.1.7 6.9 2c1.8 1.3 3.1 3.4 3.8 6.1h-1.1c1-2.5 2.6-4.5 4.8-5.9 2.2-1.5 4.8-2.2 7.6-2.2 3.9 0 6.9 1.2 8.8 3.5 1.9 2.3 2.9 5.9 2.9 10.8v21.4h-8.7v-21.1c0-2.8-.5-4.8-1.4-6s-2.4-1.8-4.4-1.8c-2.4 0-4.3.8-5.7 2.5s-2.1 4-2.1 6.8v19.5h-8.7v-21.1c0-2.8-.5-4.8-1.4-6s-2.4-1.8-4.4-1.8c-2.4 0-4.3.8-5.6 2.5-1.4 1.7-2 4-2 6.8v19.5h-8.7v.3zm81 .7c-5.9 0-10.5-1.6-13.8-4.9-3.3-3.2-5-7.7-5-13.3 0-3.6.7-6.8 2.1-9.6 1.4-2.7 3.4-4.9 6-6.4s5.6-2.3 9-2.3 6.2.7 8.5 2.1c2.3 1.4 4 3.4 5.2 6s1.8 5.6 1.8 9.1v2.3h-25.5v-4.6h19.3l-1.2 1c0-3.2-.7-5.7-2-7.4-1.4-1.7-3.3-2.6-5.9-2.6-2.9 0-5.1 1-6.6 3s-2.3 4.9-2.3 8.5v.9c0 3.8.9 6.6 2.8 8.5s4.5 2.8 7.9 2.8c2 0 3.8-.3 5.6-.8 1.7-.5 3.4-1.4 5-2.6l2.6 5.8c-1.7 1.3-3.6 2.4-6 3.1-2.5 1.1-4.9 1.4-7.5 1.4zm22.8-.7v-26.3c0-1.4 0-2.9-.1-4.4s-.2-2.9-.4-4.4h8.4l.7 6.9h-.8c1.1-2.4 2.7-4.3 4.9-5.6 2.2-1.3 4.7-2 7.6-2 4.1 0 7.2 1.2 9.3 3.5 2.1 2.3 3.1 5.9 3.1 10.8v21.4h-8.7v-21c0-2.8-.5-4.8-1.6-6.1-1.1-1.2-2.7-1.8-4.9-1.8-2.7 0-4.8.8-6.4 2.5s-2.4 3.9-2.4 6.7v19.8h-8.7zm58.5.7c-4.2 0-7.3-1.1-9.4-3.3s-3.2-5.4-3.2-9.8V139h-6.7v-6.5h6.7v-8.9l8.7-2.2v11.2h9.4v6.5h-9.4v15.6c0 2.4.5 4.1 1.4 5.1s2.2 1.5 3.8 1.5c.9 0 1.6-.1 2.3-.2.6-.1 1.2-.3 1.8-.6v6.9c-.8.3-1.7.6-2.6.7-1 .1-2 .1-2.8.1z" fill="#fff"/></svg>