<svg version="1.2" baseProfile="tiny" xmlns="http://www.w3.org/2000/svg" viewBox="0 0 200 200"><switch><g><linearGradient id="a" gradientUnits="userSpaceOnUse" x1="100" y1="138.698" x2="100" y2="242.948"><stop offset="0" stop-color="#f7af04"/><stop offset="1" stop-color="#f42014"/></linearGradient><path fill="url(#a)" d="M162.2 173.9c5.5 0 9.3-5.3 7.7-10.5-5.6-17.8-22.3-30.7-41.9-30.7H72.1c-19.7 0-36.3 12.9-41.9 30.7-1.6 5.2 2.2 10.5 7.7 10.5h124.3z"/><radialGradient id="b" cx="86.817" cy="121.698" r="104.721" gradientUnits="userSpaceOnUse"><stop offset="0" stop-color="#f6d201"/><stop offset=".331" stop-color="#f6cc02" stop-opacity=".801"/><stop offset=".439" stop-color="#f6c902" stop-opacity=".736"/><stop offset=".799" stop-color="#f7ba03" stop-opacity=".264"/><stop offset="1" stop-color="#f7af04" stop-opacity="0"/></radialGradient><path fill="url(#b)" d="M37.8 168.9c-1.3 0-2.1-.8-2.4-1.2-.6-.8-.8-1.8-.4-2.8 5.2-16.3 20.1-27.2 37.2-27.2H128c17.1 0 32 10.9 37.2 27.2.3 1 .1 2-.4 2.8-.3.5-1.1 1.2-2.4 1.2H37.8z"/><path fill="#C7CEDA" d="M82.4 96.3h35.2v50.8H82.4z"/><path fill="#1A9EFE" d="M100 139.4l-9.4 5.5s-24.7 4.7-6.5 13.4 14.7 13.5 14.7 13.5l21.4-17s-.9-9.6-5.2-12.6c-4.4-2.9-9.5-4-9.5-4l-5.5 1.2z"/><linearGradient id="c" gradientUnits="userSpaceOnUse" x1="100" y1="89.364" x2="100" y2="275.385"><stop offset="0" stop-color="#f7af04"/><stop offset="1" stop-color="#f42014"/></linearGradient><path fill="url(#c)" d="M120.6 129.3l-11.2 23.9-9.4 13.4-9.4-13.4-11.9-23.7-15.6 4.2 24.4 40.2h25l24.4-40.2z"/><path fill="#F8F9F9" d="M90.6 153.2l-14.7-21.9 4.6-5.9 19.5 14zm18.8 0l14.7-21.9-4.6-5.9-19.5 14z"/><g fill="#E0E4EA"><ellipse transform="rotate(-30.977 69.376 86.555)" cx="69.4" cy="86.6" rx="10.3" ry="12.6"/><ellipse transform="rotate(-59.023 130.62 86.555)" cx="130.6" cy="86.6" rx="12.6" ry="10.3"/></g><path fill="#E0E4EA" d="M100 126.7c-17.3 0-31.4-14.1-31.4-31.4V61c0-3 2.4-5.4 5.4-5.4h52c3 0 5.4 2.4 5.4 5.4v34.2c0 17.4-14.1 31.5-31.4 31.5z"/><path fill="#C7CEDA" d="M64 70.1s-.7 15.3 4.6 24.5c0 0-1.7-23.2 7.9-23.2S64 70.1 64 70.1zm72 0s.7 15.3-4.6 24.5c0 0 1.7-23.2-7.9-23.2s12.5-1.3 12.5-1.3z"/><g fill="#1A9EFE"><path d="M85.8 103.1c-5.8 0-10.4-4.7-10.4-10.4S80 82.2 85.8 82.2s10.4 4.7 10.4 10.4-4.7 10.5-10.4 10.5zm0-18.9c-4.7 0-8.4 3.8-8.4 8.4s3.8 8.4 8.4 8.4 8.4-3.8 8.4-8.4-3.8-8.4-8.4-8.4zm26.9 18.9c-5.8 0-10.4-4.7-10.4-10.4s4.7-10.4 10.4-10.4 10.4 4.7 10.4 10.4-4.6 10.4-10.4 10.4zm0-18.9c-4.7 0-8.4 3.8-8.4 8.4s3.8 8.4 8.4 8.4 8.4-3.8 8.4-8.4-3.7-8.4-8.4-8.4z"/><path d="M102.7 93.5c-3.7-2.5-6.7-.2-6.8 0L94.6 92c1.5-1.2 5.3-2.8 9.2-.1l-1.1 1.6z"/></g><path fill="#1A9EFE" d="M64.09 76.554l1.57-1.24 11.657 14.748-1.569 1.24zm57.294 13.474l11.66-14.749 1.569 1.24-11.66 14.75z"/><linearGradient id="d" gradientUnits="userSpaceOnUse" x1="100" y1="27.281" x2="100" y2="148.784"><stop offset="0" stop-color="#f7af04"/><stop offset="1" stop-color="#f42014"/></linearGradient><ellipse fill="url(#d)" cx="100" cy="67.3" rx="47.4" ry="14.2"/><linearGradient id="e" gradientUnits="userSpaceOnUse" x1="189.817" y1="67.35" x2="56.001" y2="67.35"><stop offset="0" stop-color="#f7af04" stop-opacity="0"/><stop offset="1" stop-color="#f6d201"/></linearGradient><ellipse fill="url(#e)" cx="100" cy="67.3" rx="40.9" ry="10.2"/><linearGradient id="f" gradientUnits="userSpaceOnUse" x1="100" y1="30.281" x2="100" y2="163.781"><stop offset="0" stop-color="#f7af04"/><stop offset="1" stop-color="#f42014"/></linearGradient><path fill="url(#f)" d="M133.6 63.5l-2.8-27.4c-.7-6.4-6.6-11-13-9.9l-9.9 1.7c-6 1-12.1 1-18-.1l-7.6-1.4c-6.4-1.2-12.5 3.4-13.2 9.9l-2.8 27.2c0 .2-.1.4-.1.6 0 5.6 15.1 10.1 33.7 10.1s33.7-4.5 33.7-10.1c.1-.2.1-.4 0-.6z"/><radialGradient id="g" cx="86.984" cy="32.281" r="43.025" gradientUnits="userSpaceOnUse"><stop offset="0" stop-color="#f6d201"/><stop offset=".326" stop-color="#f6cc01" stop-opacity=".674"/><stop offset=".749" stop-color="#f7bc03" stop-opacity=".251"/><stop offset="1" stop-color="#f7af04" stop-opacity="0"/></radialGradient><path fill="url(#g)" d="M100 69.2c-16.5 0-26.5-3.5-28.6-5.6l2.7-26.8c.3-3.2 3-5.6 6.2-5.6.4 0 .7 0 1.1.1l7.6 1.4c3.4.6 6.8.9 10.2.9 3.2 0 6.4-.3 9.5-.8l9.9-1.7c.3-.1.7-.1 1-.1 3.2 0 5.8 2.4 6.2 5.6l2.8 27c-2.1 2.1-12.1 5.6-28.6 5.6z"/></g></switch></svg>