<svg version="1.1" id="Layer_1" xmlns="http://www.w3.org/2000/svg" x="0" y="0" viewBox="0 0 127.4 127.4" xml:space="preserve"><style>.st5{fill:#1a9efe}</style><linearGradient id="SVGID_1_" gradientUnits="userSpaceOnUse" x1="63.7" y1="254.77" x2="63.7" y2="561.29" gradientTransform="translate(0 -254.61)"><stop offset="0" stop-color="#f7af04"/><stop offset="1" stop-color="#f42014"/></linearGradient><circle cx="63.7" cy="63.7" r="63.7" fill="url(#SVGID_1_)"/><radialGradient id="SVGID_00000172405461944352089830000006389790240361416835_" cx="63.7" cy="318.31" r="89.11" gradientTransform="translate(0 -254.61)" gradientUnits="userSpaceOnUse"><stop offset="0" stop-color="#f6d201"/><stop offset=".33" stop-color="#f6cc01" stop-opacity=".67"/><stop offset=".75" stop-color="#f7bc03" stop-opacity=".25"/><stop offset="1" stop-color="#f7af04" stop-opacity="0"/></radialGradient><circle cx="63.7" cy="63.7" r="58.5" fill="url(#SVGID_00000172405461944352089830000006389790240361416835_)"/><linearGradient id="SVGID_00000068665971467189887590000008108417858702657720_" gradientUnits="userSpaceOnUse" x1="63.7" y1="254.77" x2="63.7" y2="561.29" gradientTransform="translate(0 -254.61)"><stop offset="0" stop-color="#f7af04"/><stop offset="1" stop-color="#f42014"/></linearGradient><circle cx="63.7" cy="63.7" r="63.7" fill="url(#SVGID_00000068665971467189887590000008108417858702657720_)"/><linearGradient id="SVGID_00000003098149556225891270000008266517056804306105_" gradientUnits="userSpaceOnUse" x1="63.72" y1="173.9" x2="63.72" y2="478.7" gradientTransform="translate(0 -254.61)"><stop offset="0" stop-color="#f7af04"/><stop offset="1" stop-color="#f42014"/></linearGradient><circle cx="63.7" cy="63" r="56.3" fill="url(#SVGID_00000003098149556225891270000008266517056804306105_)"/><circle cx="63.7" cy="63" r="52.9" fill="#fff"/><path class="st5" d="M63.9 31.2c-14.9 0-29.2 5.9-39.8 16.5l4.5 4.5C46 35.1 73.2 33 93.1 47.2l4.7-4.5c-9.7-7.5-21.6-11.5-33.9-11.5z"/><path class="st5" d="M63.9 47.3c-10.7 0-21 4.1-28.7 11.5l4.6 4.6c11.4-10.6 28.3-12.5 41.7-4.8l4.8-4.7c-6.7-4.4-14.4-6.6-22.4-6.6zm0 15.3c-6.6 0-12.9 2.6-17.6 7.3l4.9 4.9c4.7-4.8 11.7-6.5 18-4.2l5.5-5.4c-3.3-1.8-7-2.6-10.8-2.6z"/><linearGradient id="SVGID_00000183217901861765619640000010572542462984460426_" gradientUnits="userSpaceOnUse" x1="55.17" y1="42.56" x2="114.96" y2="42.56" gradientTransform="matrix(1 0 0 -1 0 130)"><stop offset="0" stop-color="#f7af04"/><stop offset="1" stop-color="#f42014"/></linearGradient><circle cx="63.9" cy="87.4" r="8.8" fill="url(#SVGID_00000183217901861765619640000010572542462984460426_)"/><linearGradient id="SVGID_00000142893047726590263710000002633356120433810071_" gradientUnits="userSpaceOnUse" x1="68.415" y1="66.379" x2="195.605" y2="66.379" gradientTransform="matrix(1 0 0 -1 0 130)"><stop offset="0" stop-color="#f7af04"/><stop offset="1" stop-color="#f42014"/></linearGradient><path d="M101.8 49.1l-25 32c-.8 1.1-2.3 1.3-3.4.4-.2-.1-.3-.3-.5-.5-.9-1.3-2-2.3-3.3-3.1-1.1-.7-1.5-2.2-.7-3.4.1-.2.2-.3.4-.4l29-28.3c.9-.9 2.3-.9 3.3-.1.9.9 1 2.4.2 3.4z" fill="url(#SVGID_00000142893047726590263710000002633356120433810071_)"/></svg>